<svg xmlns="http://www.w3.org/2000/svg" viewBox="0 0 283.45 219.06"><defs><style>.cls-1{isolation:isolate;}.cls-2{fill:#ec6084;}.cls-3{fill:#f9c3b4;mix-blend-mode:soft-light;}.cls-4{fill:#e8cddb;}.cls-10,.cls-4{mix-blend-mode:multiply;}.cls-5{fill:#fff;}.cls-6{fill:#d9effd;}.cls-7{fill:#1d1d1b;}.cls-8{fill:#4f232a;}.cls-9{fill:#ef84ab;}.cls-11{fill:#dbc2cf;}.cls-12{fill:#ffd000;}.cls-13{fill:#fe0;}.cls-14{fill:#14150b;}.cls-15{fill:#1b1b13;}.cls-16{fill:#020000;}</style></defs><g class="cls-1"><g id="Layer_2" data-name="Layer 2"><g id="Capa_1" data-name="Capa 1"><path class="cls-2" d="M37.6,219.06H191c12.53-12.32,20.47-27.78,21.54-44.56,3.74-59.32-51.56-64.56-49.25-102.9,1.17-19.44,9.38-25.32,9.38-25.32a39.58,39.58,0,0,0,11.72,14.09c10.95,8.21,26.19,3.52,34.81,2,1.79-5.35,7.62,1.19,7.62,1.19l9.72-19S242.74,1.92,192.16.05c-41.4-1.53-62.53,33.74-61.45,69.38,1.76,58.59,65.11,85.07,42.57,96.47-20.2,10.22-13.2-16.73-35.84-43.07C115.56,97.38,79.6,88.16,37.39,109c-17.12,8.45-19.85,2.62-22.29-2.89C9.24,92.81,3,103,3,103s-11.61,41,10.94,84.81A111.3,111.3,0,0,0,37.6,219.06Z"/><path class="cls-3" d="M18.62,127.6c10.89,5.46,19.56-10.92,29.47-15.92,18.39-9.25,37.48-9.55,56.89-2.52,15,5.44,25.93,16.84,37.83,27,2.18,1.86,4.47,3.83,6.87,5.76a82.69,82.69,0,0,0-12.24-19.13C115.56,97.38,79.6,88.16,37.39,109c-17.12,8.45-19.85,2.62-22.29-2.89-3.55-8.07-7.25-7.49-9.61-5.79C8.43,106.61,12.68,124.61,18.62,127.6Z"/><path class="cls-3" d="M144.65,48C151,37.08,156.18,23.9,166,15.56c14.4-12.22,28.83-10.5,45-3.06,6.21,2.85,13.12,6.8,20.15,7.85C224.89,10.17,213.31,0,192.16.05c-41.35.12-62.45,33.62-61.46,69.19C136.94,62.3,142.21,52.14,144.65,48Z"/><path class="cls-4" d="M231.36,45.06c-9.82,1.12-19.76,3-29.68,2.79C194.9,47.68,186.56,46.68,182,41c-5-6.17-5.21-14-4.28-21.6-19.58,11.33-23.9,37.65-18.6,58.38,4.23,16.53,14.76,27.1,27.56,35.59-12.47-12.71-24.5-23.47-23.4-41.78,1.17-19.44,9.38-25.32,9.38-25.32a39.58,39.58,0,0,0,11.72,14.09c10.95,8.21,26.19,3.52,34.81,2,1.79-5.35,7.62,1.19,7.62,1.19l9.72-19C234.73,44.67,233,44.87,231.36,45.06Z"/><path class="cls-5" d="M239.44,104.23c1.09-1.49,17-42.69-7.64-63.61-13.08-2.21-19.31,21.73-19.31,21.73s19.31,15.61,22,39.39C235.21,108.56,238.35,105.72,239.44,104.23Z"/><path class="cls-6" d="M239.44,104.23c.78-29.79-14.46-54-21.45-54.87a54.91,54.91,0,0,0-5.5,13s19.31,15.61,22,39.39C235.21,108.56,238.35,105.72,239.44,104.23Z"/><path class="cls-7" d="M237.64,81.33a67,67,0,0,0-8.43,2.76,54,54,0,0,1,5.24,17.65c.76,6.82,3.9,4,5,2.49.52-.72,4.46-10.61,5.69-23A18.72,18.72,0,0,0,237.64,81.33Z"/><path class="cls-8" d="M210.32,33.81c1.17,1.58,3.36,1.07,4.74,1.71,1.55.73,1.91,3.06,1.91,3.06s.46-4.56-2-7.9-7-4.23-7-4.23a6.65,6.65,0,0,1,1.89,3.38C210.15,31,209.48,32.68,210.32,33.81Z"/><path class="cls-9" d="M52.85,148.79s-13.1-4.14-14,.87S53.07,163.6,53.07,163.6s-13.5-5.13-14.85,1.73,11.62,16.24,11.62,16.24S38.33,176,37,181.47,47.24,194.3,47.24,194.3s-13.38-1.08-10.34,8.33C38,206,44.66,213.07,55.51,219.06h79.23c26.74-13.24,25.37-32.63,16.6-49.78-13.31-26-23.48-54.33-67.26-48.47-34.58,4.63-44.31,1.54-47.63,4.69C26,135.42,52.85,148.79,52.85,148.79Z"/><g class="cls-10"><path class="cls-11" d="M74.57,165.11c1.21,5.49,15.15,3,15.15,3s-9.74,2.88-9.31,8,15.94,7.38,15.94,7.38-5.22.1-7.86,1.83c-4.41-.88-13.09-3.1-13.41-6.93-.43-5.13,9.32-8,9.32-8s-14,2.46-15.16-3c-.88-4,6.14-7,10.07-8.33C76.45,160.61,74,162.68,74.57,165.11Z"/><path class="cls-11" d="M87.61,186.15a2.58,2.58,0,0,0-.45,2.57c.84,2.61,10.73,10.89,20,18.2C93.66,202.47,83,194.5,81.83,191,80.84,187.9,84.6,186.65,87.61,186.15Z"/><path class="cls-11" d="M71.3,153.19c1.79,6.75,15.86,2.8,15.86,2.8A42.36,42.36,0,0,0,80,158.7c-3.86.8-12.63,2-14-3.23-1.21-4.54,4.19-6.81,7.87-7.82C71.94,148.94,70.64,150.73,71.3,153.19Z"/><path class="cls-11" d="M65.52,141.4c1.44,4.87,16.84,3.28,16.84,3.28a25.29,25.29,0,0,0-7.67,2.45c-4.36.22-13.41.23-14.49-3.45-1-3.5,5.14-6.06,8.7-7.22C66.66,137.76,64.94,139.42,65.52,141.4Z"/></g><g class="cls-10"><path class="cls-11" d="M103.34,159.85c1.13,5.12,14.13,2.82,14.13,2.82s-9.09,2.69-8.69,7.47S123.65,177,123.65,177s-4.86.09-7.33,1.71c-4.11-.83-12.2-2.9-12.5-6.47-.41-4.78,8.68-7.47,8.68-7.47s-13,2.3-14.13-2.82c-.82-3.72,5.73-6.52,9.39-7.78C105.09,155.65,102.84,157.58,103.34,159.85Z"/><path class="cls-11" d="M115.5,179.47a2.37,2.37,0,0,0-.42,2.39c.78,2.44,10,10.16,18.64,17-12.58-4.14-22.56-11.58-23.61-14.85C109.19,181.1,112.7,179.94,115.5,179.47Z"/><path class="cls-11" d="M100.29,148.73c1.67,6.3,14.8,2.61,14.8,2.61a39.05,39.05,0,0,0-6.68,2.53c-3.6.75-11.79,1.88-13.09-3-1.13-4.23,3.91-6.36,7.34-7.3C100.88,144.77,99.68,146.44,100.29,148.73Z"/></g><path class="cls-12" d="M226.44,33.77c0,1.78-1.17,25.79-24,25.79-24,0-24-24-24-25.79,0-4.4,10.76-8.5,24-8.5S226.44,27.91,226.44,33.77Z"/><path class="cls-13" d="M179.52,34.49c0-4.4,10.75-8.5,24-8.5,8.6,0,16.14,1.11,20.39,3.48-3.94-2.87-12.09-4.2-21.52-4.2-13.26,0-24,4.1-24,8.5,0,1.38,0,16,11.12,22.63C179.52,49.53,179.52,35.82,179.52,34.49Z"/><path class="cls-14" d="M222.09,35.34c0,1.45-1,21.11-19.68,21.11-19.67,0-19.67-19.66-19.67-21.11,0-3.6,8.81-7,19.67-7S222.09,30.54,222.09,35.34Z"/><path class="cls-15" d="M208.22,39.17a44.37,44.37,0,0,0,13.25.94,25.62,25.62,0,0,0,.62-4.77c0-4.8-8.81-7-19.68-7a45.45,45.45,0,0,0-11.47,1.38C194.82,34.88,202.54,37.93,208.22,39.17Z"/><path class="cls-16" d="M204.29,54.37c-19.67,0-19.67-19.65-19.67-21.11a2.4,2.4,0,0,1,.2-.93c-1.33.93-2.08,2-2.08,3,0,1.45,0,21.11,19.67,21.11,7.3,0,11.89-3,14.79-6.73C214.3,52.43,210.18,54.37,204.29,54.37Z"/><path class="cls-12" d="M235.39,33.77c0,1.78,1.18,25.79,24,25.79,24,0,24-24,24-25.79,0-4.4-10.76-8.5-24-8.5S235.39,27.91,235.39,33.77Z"/><path class="cls-13" d="M282.32,34.49c0-4.4-10.76-8.5-24-8.5-8.6,0-16.13,1.11-20.38,3.48,3.93-2.87,12.09-4.2,21.51-4.2,13.27,0,24,4.1,24,8.5,0,1.38,0,16-11.13,22.63C282.32,49.53,282.32,35.82,282.32,34.49Z"/><path class="cls-14" d="M239.75,35.34c0,1.45,1,21.11,19.67,21.11,19.67,0,19.67-19.66,19.67-21.11,0-3.6-8.8-7-19.67-7S239.75,30.54,239.75,35.34Z"/><path class="cls-15" d="M253.62,39.17a44.41,44.41,0,0,1-13.26.94,26.15,26.15,0,0,1-.61-4.77c0-4.8,8.81-7,19.67-7a45.53,45.53,0,0,1,11.48,1.38C267,34.88,259.3,37.93,253.62,39.17Z"/><path class="cls-16" d="M257.54,54.37c19.68,0,19.68-19.65,19.68-21.11a2.4,2.4,0,0,0-.2-.93c1.32.93,2.07,2,2.07,3,0,1.45,0,21.11-19.67,21.11-7.3,0-11.89-3-14.78-6.73C247.53,52.43,251.66,54.37,257.54,54.37Z"/><path class="cls-12" d="M236.83,41.82l-.88-9a6.72,6.72,0,0,0-9.87,0l-1,9s1.6-4.5,5.89-4.5S236.83,41.82,236.83,41.82Z"/><path class="cls-13" d="M235.15,34.61c0,.67-1.93-1.62-4.42-1.62s-4.56,2.29-4.56,1.62,2-3.47,4.49-3.47S235.15,33.93,235.15,34.61Z"/></g></g></g></svg>