<svg xmlns="http://www.w3.org/2000/svg" xmlns:xlink="http://www.w3.org/1999/xlink" viewBox="0 0 195.63 265.64"><defs><style>.cls-1{isolation:isolate;}.cls-2{fill:url(#linear-gradient);}.cls-3{fill:url(#linear-gradient-2);}.cls-4{fill:url(#linear-gradient-3);}.cls-5{fill:url(#linear-gradient-4);}.cls-6{fill:url(#linear-gradient-5);}.cls-7{fill:url(#linear-gradient-6);}.cls-8{fill:url(#linear-gradient-7);}.cls-9{fill:url(#linear-gradient-8);}.cls-10{fill:url(#linear-gradient-9);}.cls-11{fill:url(#linear-gradient-10);}.cls-12{fill:url(#linear-gradient-11);}.cls-13{fill:url(#linear-gradient-12);}.cls-14{fill:url(#linear-gradient-13);}.cls-15{fill:url(#linear-gradient-14);}.cls-16{fill:url(#linear-gradient-15);}.cls-17{fill:url(#linear-gradient-16);}.cls-18{fill:url(#linear-gradient-17);}.cls-19{fill:url(#linear-gradient-18);}.cls-20{fill:url(#linear-gradient-19);}.cls-21{fill:url(#linear-gradient-20);}.cls-22{fill:url(#linear-gradient-21);}.cls-23{fill:url(#linear-gradient-22);}.cls-24{fill:url(#linear-gradient-23);}.cls-25{fill:url(#linear-gradient-24);}.cls-26{fill:url(#linear-gradient-25);}.cls-27{fill:url(#linear-gradient-26);}.cls-28{fill:url(#linear-gradient-27);}.cls-29{fill:url(#linear-gradient-28);}.cls-30{fill:url(#linear-gradient-29);}.cls-31{fill:url(#linear-gradient-30);}.cls-32{fill:url(#linear-gradient-31);}.cls-33{fill:url(#linear-gradient-32);}.cls-34{fill:url(#linear-gradient-33);}.cls-35{fill:url(#linear-gradient-34);}.cls-36{fill:url(#linear-gradient-35);}.cls-37{fill:url(#linear-gradient-36);}.cls-38{fill:url(#linear-gradient-37);}.cls-39{fill:url(#linear-gradient-38);}.cls-40{fill:url(#linear-gradient-39);}.cls-41{fill:url(#linear-gradient-40);}.cls-42{fill:url(#linear-gradient-41);}.cls-43{fill:url(#linear-gradient-42);}.cls-44{fill:url(#linear-gradient-43);}.cls-45{fill:url(#linear-gradient-44);}.cls-46{fill:url(#linear-gradient-45);}.cls-47{fill:url(#linear-gradient-46);}.cls-48{fill:url(#linear-gradient-47);}.cls-49{fill:url(#linear-gradient-48);}.cls-50{fill:url(#linear-gradient-49);}.cls-51{fill:url(#linear-gradient-50);}.cls-52{fill:url(#linear-gradient-51);}.cls-53{fill:url(#linear-gradient-52);}.cls-54{fill:url(#linear-gradient-53);}.cls-55{fill:url(#linear-gradient-54);}.cls-56{fill:url(#linear-gradient-55);}.cls-57{fill:url(#linear-gradient-56);}.cls-58{fill:url(#linear-gradient-57);}.cls-59{fill:url(#linear-gradient-58);}.cls-60{fill:url(#linear-gradient-59);}.cls-61{fill:url(#linear-gradient-60);}.cls-62{fill:url(#linear-gradient-61);}.cls-63{fill:url(#linear-gradient-62);}.cls-64{fill:url(#linear-gradient-63);}.cls-65{fill:url(#linear-gradient-64);}.cls-66{fill:url(#linear-gradient-65);}.cls-67{fill:url(#linear-gradient-66);}.cls-68{fill:url(#linear-gradient-67);}.cls-69{fill:url(#linear-gradient-68);}.cls-70{fill:url(#linear-gradient-69);}.cls-71{fill:url(#linear-gradient-70);}.cls-72{fill:url(#linear-gradient-71);}.cls-73{fill:url(#linear-gradient-72);}.cls-74{opacity:0.6;mix-blend-mode:multiply;fill:url(#linear-gradient-73);}.cls-75{fill:url(#linear-gradient-74);}.cls-76{fill:url(#linear-gradient-75);}.cls-77{fill:url(#linear-gradient-76);}.cls-78{fill:url(#linear-gradient-77);}.cls-79{fill:url(#linear-gradient-78);}.cls-80{fill:url(#linear-gradient-79);}.cls-81{fill:url(#linear-gradient-80);}.cls-82{fill:url(#linear-gradient-81);}.cls-83{fill:url(#linear-gradient-82);}.cls-84{fill:url(#linear-gradient-83);}.cls-85{fill:url(#linear-gradient-84);}.cls-86{fill:url(#linear-gradient-85);}.cls-87{fill:url(#linear-gradient-86);}.cls-88{fill:url(#linear-gradient-87);}.cls-89{fill:url(#linear-gradient-88);}.cls-90{fill:url(#linear-gradient-89);}.cls-91{fill:url(#linear-gradient-90);}.cls-92{fill:url(#linear-gradient-91);}.cls-93{fill:url(#linear-gradient-92);}.cls-94{fill:url(#linear-gradient-93);}.cls-95{fill:url(#linear-gradient-94);}.cls-96{fill:url(#linear-gradient-95);}.cls-97{fill:url(#linear-gradient-96);}.cls-98{fill:url(#linear-gradient-97);}.cls-99{fill:url(#linear-gradient-98);}.cls-100{fill:url(#linear-gradient-99);}.cls-101{fill:url(#linear-gradient-100);}.cls-102{fill:url(#linear-gradient-101);}.cls-103{fill:url(#linear-gradient-102);}.cls-104{fill:url(#linear-gradient-103);}.cls-105{fill:url(#linear-gradient-104);}.cls-106{fill:url(#linear-gradient-105);}.cls-107{fill:url(#linear-gradient-106);}.cls-108{fill:url(#linear-gradient-107);}.cls-109{fill:url(#linear-gradient-108);}.cls-110{fill:url(#linear-gradient-109);}.cls-111{fill:url(#linear-gradient-110);}.cls-112{fill:url(#linear-gradient-111);}.cls-113{fill:url(#linear-gradient-112);}.cls-114{fill:url(#linear-gradient-113);}.cls-115{fill:url(#linear-gradient-114);}.cls-116{fill:url(#linear-gradient-115);}.cls-117{fill:url(#linear-gradient-116);}.cls-118{fill:url(#linear-gradient-117);}.cls-119{fill:url(#linear-gradient-118);}.cls-120{fill:url(#linear-gradient-119);}.cls-121{fill:url(#linear-gradient-120);}.cls-122{fill:url(#linear-gradient-121);}.cls-123{fill:url(#linear-gradient-122);}.cls-124{fill:url(#linear-gradient-123);}.cls-125{fill:url(#linear-gradient-124);}.cls-126{fill:url(#linear-gradient-125);}.cls-127{fill:url(#linear-gradient-126);}.cls-128{fill:url(#linear-gradient-127);}.cls-129{fill:url(#linear-gradient-128);}.cls-130{fill:url(#linear-gradient-129);}.cls-131{fill:url(#linear-gradient-130);}.cls-132{fill:url(#linear-gradient-131);}.cls-133{fill:url(#linear-gradient-132);}.cls-134{fill:url(#linear-gradient-133);}.cls-135{fill:url(#linear-gradient-134);}.cls-136{fill:url(#linear-gradient-135);}.cls-137{fill:url(#linear-gradient-136);}.cls-138{fill:url(#linear-gradient-137);}.cls-139{fill:url(#linear-gradient-138);}.cls-140{fill:url(#linear-gradient-139);}.cls-141{fill:url(#linear-gradient-140);}.cls-142{fill:url(#linear-gradient-141);}.cls-143{fill:url(#linear-gradient-142);}.cls-144{fill:url(#linear-gradient-143);}.cls-145{fill:url(#linear-gradient-144);}.cls-146{fill:url(#linear-gradient-145);}</style><linearGradient id="linear-gradient" x1="912.39" y1="247.45" x2="1097.89" y2="390.13" gradientTransform="matrix(0.81, -0.41, 0.44, 0.93, -829.2, 165.56)" gradientUnits="userSpaceOnUse"><stop offset="0.2" stop-color="#2b5900"/><stop offset="1" stop-color="#4a9100"/></linearGradient><linearGradient id="linear-gradient-2" x1="837.37" y1="244" x2="850.68" y2="254.23" gradientTransform="translate(-787.9 169.3) rotate(-26.26)" gradientUnits="userSpaceOnUse"><stop offset="0" stop-color="#428c00"/><stop offset="0.62" stop-color="#8abf00"/></linearGradient><linearGradient id="linear-gradient-3" x1="815.14" y1="183.84" x2="828.72" y2="194.29" gradientTransform="translate(-754.02 184.12) rotate(-24.32)" xlink:href="#linear-gradient-2"/><linearGradient id="linear-gradient-4" x1="859.99" y1="371.17" x2="873.63" y2="381.66" gradientTransform="translate(-871.28 139.29) rotate(-30.89)" xlink:href="#linear-gradient-2"/><linearGradient id="linear-gradient-5" x1="855.16" y1="368.57" x2="867.15" y2="377.8" gradientTransform="translate(-871.28 139.29) rotate(-30.89)" xlink:href="#linear-gradient-2"/><linearGradient id="linear-gradient-6" x1="880.59" y1="571.4" x2="891.89" y2="580.09" gradientTransform="translate(-1000.96 104.78) rotate(-37.81)" xlink:href="#linear-gradient-2"/><linearGradient id="linear-gradient-7" x1="877.22" y1="790.27" x2="889.91" y2="800.04" gradientTransform="translate(-1143.16 83.31) rotate(-45.23)" xlink:href="#linear-gradient-2"/><linearGradient id="linear-gradient-8" x1="923.35" y1="784.44" x2="935.93" y2="794.11" gradientTransform="matrix(0.68, -0.69, 0.73, 0.72, -1173.48, 89.8)" xlink:href="#linear-gradient-2"/><linearGradient id="linear-gradient-9" x1="841.6" y1="247.51" x2="854.64" y2="257.55" xlink:href="#linear-gradient-2"/><linearGradient id="linear-gradient-10" x1="845.48" y1="250.11" x2="857.78" y2="259.57" xlink:href="#linear-gradient-2"/><linearGradient id="linear-gradient-11" x1="788.47" y1="89.52" x2="801.14" y2="99.26" gradientTransform="matrix(0.94, -0.35, 0.35, 0.94, -686.91, 211.85)" xlink:href="#linear-gradient-2"/><linearGradient id="linear-gradient-12" x1="663.28" y1="123.87" x2="676.01" y2="133.67" gradientTransform="matrix(1.02, -0.38, 0.37, 0.98, -632.53, 151.33)" xlink:href="#linear-gradient-2"/><linearGradient id="linear-gradient-13" x1="647.71" y1="79.38" x2="660.27" y2="89.04" gradientTransform="matrix(1.03, -0.35, 0.34, 0.99, -599.99, 167.87)" xlink:href="#linear-gradient-2"/><linearGradient id="linear-gradient-14" x1="617.02" y1="10.03" x2="630.43" y2="20.34" gradientTransform="matrix(1.05, -0.3, 0.29, 1.01, -548.9, 195.25)" xlink:href="#linear-gradient-2"/><linearGradient id="linear-gradient-15" x1="531.21" y1="-140.65" x2="545.56" y2="-129.61" gradientTransform="matrix(1.07, -0.18, 0.17, 1.03, -441.01, 263.58)" xlink:href="#linear-gradient-2"/><linearGradient id="linear-gradient-16" x1="536.56" y1="-138.14" x2="549.77" y2="-127.98" gradientTransform="matrix(1.07, -0.18, 0.17, 1.03, -441.01, 263.58)" xlink:href="#linear-gradient-2"/><linearGradient id="linear-gradient-17" x1="423.18" y1="-291.19" x2="434.74" y2="-282.29" gradientTransform="matrix(1.09, -0.05, 0.05, 1.05, -330.11, 351.55)" xlink:href="#linear-gradient-2"/><linearGradient id="linear-gradient-18" x1="426.08" y1="-288.87" x2="437.76" y2="-279.87" gradientTransform="matrix(1.09, -0.05, 0.05, 1.05, -330.11, 351.55)" xlink:href="#linear-gradient-2"/><linearGradient id="linear-gradient-19" x1="430.07" y1="-286.58" x2="440.82" y2="-278.32" gradientTransform="matrix(1.09, -0.05, 0.05, 1.05, -330.11, 351.55)" xlink:href="#linear-gradient-2"/><linearGradient id="linear-gradient-20" x1="432.82" y1="-285.04" x2="443.9" y2="-276.53" gradientTransform="matrix(1.09, -0.05, 0.05, 1.05, -330.11, 351.55)" xlink:href="#linear-gradient-2"/><linearGradient id="linear-gradient-21" x1="436.4" y1="-282.41" x2="447.86" y2="-273.6" gradientTransform="matrix(1.09, -0.05, 0.05, 1.05, -330.11, 351.55)" xlink:href="#linear-gradient-2"/><linearGradient id="linear-gradient-22" x1="437.59" y1="-280.91" x2="452" y2="-269.82" gradientTransform="matrix(1.09, -0.05, 0.05, 1.05, -330.11, 351.55)" xlink:href="#linear-gradient-2"/><linearGradient id="linear-gradient-23" x1="467" y1="-248.57" x2="481.4" y2="-237.49" gradientTransform="matrix(1.09, -0.08, 0.07, 1.05, -351.74, 333.04)" xlink:href="#linear-gradient-2"/><linearGradient id="linear-gradient-24" x1="468.43" y1="-245.5" x2="482.06" y2="-235.02" gradientTransform="matrix(1.09, -0.08, 0.07, 1.05, -351.74, 333.04)" gradientUnits="userSpaceOnUse"><stop offset="0" stop-color="#428c00"/><stop offset="0.62" stop-color="#b0d900"/></linearGradient><linearGradient id="linear-gradient-25" x1="413.83" y1="-308.93" x2="427.47" y2="-298.44" gradientTransform="matrix(1.09, -0.02, 0.01, 1.05, -302.8, 372.98)" xlink:href="#linear-gradient-24"/><linearGradient id="linear-gradient-26" x1="415.44" y1="-306.24" x2="428.06" y2="-296.54" gradientTransform="matrix(1.09, -0.02, 0.01, 1.05, -302.8, 372.98)" xlink:href="#linear-gradient-24"/><linearGradient id="linear-gradient-27" x1="417.65" y1="-304.11" x2="429.73" y2="-294.81" gradientTransform="matrix(1.09, -0.02, 0.01, 1.05, -302.8, 372.98)" xlink:href="#linear-gradient-24"/><linearGradient id="linear-gradient-28" x1="419.72" y1="-302.73" x2="432.62" y2="-292.81" gradientTransform="matrix(1.09, -0.02, 0.01, 1.05, -302.8, 372.98)" xlink:href="#linear-gradient-24"/><linearGradient id="linear-gradient-29" x1="420.93" y1="-300.16" x2="432.72" y2="-291.09" gradientTransform="matrix(1.09, -0.02, 0.01, 1.05, -302.8, 372.98)" xlink:href="#linear-gradient-24"/><linearGradient id="linear-gradient-30" x1="421.75" y1="-298.17" x2="432.5" y2="-289.91" gradientTransform="matrix(1.09, -0.02, 0.01, 1.05, -302.8, 372.98)" xlink:href="#linear-gradient-24"/><linearGradient id="linear-gradient-31" x1="411.66" y1="-309.09" x2="423.12" y2="-300.27" gradientTransform="matrix(1.09, 0, 0, 1.05, -293.23, 380.66)" xlink:href="#linear-gradient-24"/><linearGradient id="linear-gradient-32" x1="412.92" y1="-307.2" x2="424.44" y2="-298.34" gradientTransform="matrix(1.09, 0, 0, 1.05, -293.23, 380.66)" xlink:href="#linear-gradient-24"/><linearGradient id="linear-gradient-33" x1="414.33" y1="-305.29" x2="425.51" y2="-296.69" gradientTransform="matrix(1.09, 0, 0, 1.05, -293.23, 380.66)" xlink:href="#linear-gradient-24"/><linearGradient id="linear-gradient-34" x1="316.18" y1="-396.86" x2="327.26" y2="-388.33" gradientTransform="matrix(1.09, 0.09, -0.09, 1.05, -218.9, 447.05)" xlink:href="#linear-gradient-24"/><linearGradient id="linear-gradient-35" x1="316.91" y1="-395.05" x2="328.22" y2="-386.35" gradientTransform="matrix(1.09, 0.09, -0.09, 1.05, -218.9, 447.05)" xlink:href="#linear-gradient-24"/><linearGradient id="linear-gradient-36" x1="318.3" y1="-393.61" x2="329.4" y2="-385.07" gradientTransform="matrix(1.09, 0.09, -0.09, 1.05, -218.9, 447.05)" xlink:href="#linear-gradient-24"/><linearGradient id="linear-gradient-37" x1="319.13" y1="-392.98" x2="332.7" y2="-382.54" gradientTransform="matrix(1.09, 0.09, -0.09, 1.05, -218.9, 447.05)" xlink:href="#linear-gradient-24"/><linearGradient id="linear-gradient-38" x1="7.54" y1="-598.38" x2="20.12" y2="-588.7" gradientTransform="matrix(1.03, 0.34, -0.33, 1, -41.86, 659.2)" xlink:href="#linear-gradient-24"/><linearGradient id="linear-gradient-39" x1="-445.72" y1="-741.52" x2="-433.74" y2="-732.31" gradientTransform="matrix(0.89, 0.64, -0.61, 0.85, 104.69, 982.31)" xlink:href="#linear-gradient-24"/><linearGradient id="linear-gradient-40" x1="-445.2" y1="-741.12" x2="-425.58" y2="-726.02" gradientTransform="matrix(0.89, 0.64, -0.61, 0.85, 104.69, 982.31)" xlink:href="#linear-gradient-24"/><linearGradient id="linear-gradient-41" x1="816.68" y1="273.76" x2="821.04" y2="252.27" gradientTransform="translate(-787.9 169.3) rotate(-26.26)" gradientUnits="userSpaceOnUse"><stop offset="0" stop-color="#366a00"/><stop offset="1" stop-color="#569e00"/></linearGradient><linearGradient id="linear-gradient-42" x1="820.44" y1="276.77" x2="825.04" y2="254.09" xlink:href="#linear-gradient-41"/><linearGradient id="linear-gradient-43" x1="823.74" y1="278.76" x2="828.45" y2="255.54" xlink:href="#linear-gradient-41"/><linearGradient id="linear-gradient-44" x1="828.79" y1="282.85" x2="833.64" y2="258.93" xlink:href="#linear-gradient-41"/><linearGradient id="linear-gradient-45" x1="833.96" y1="286.08" x2="838.73" y2="262.61" xlink:href="#linear-gradient-41"/><linearGradient id="linear-gradient-46" x1="839.09" y1="289.86" x2="843.85" y2="266.39" xlink:href="#linear-gradient-41"/><linearGradient id="linear-gradient-47" x1="843.69" y1="292.16" x2="848.45" y2="268.68" xlink:href="#linear-gradient-41"/><linearGradient id="linear-gradient-48" x1="848.17" y1="295.49" x2="852.77" y2="272.83" xlink:href="#linear-gradient-41"/><linearGradient id="linear-gradient-49" x1="851.78" y1="298.63" x2="856.4" y2="275.89" xlink:href="#linear-gradient-41"/><linearGradient id="linear-gradient-50" x1="856.22" y1="301.84" x2="860.58" y2="280.32" xlink:href="#linear-gradient-41"/><linearGradient id="linear-gradient-51" x1="860.26" y1="304.81" x2="864.6" y2="283.4" xlink:href="#linear-gradient-41"/><linearGradient id="linear-gradient-52" x1="863.84" y1="308.4" x2="868.16" y2="287.1" xlink:href="#linear-gradient-41"/><linearGradient id="linear-gradient-53" x1="866.8" y1="311.17" x2="871.08" y2="290.13" gradientTransform="translate(-787.9 169.3) rotate(-26.26)" gradientUnits="userSpaceOnUse"><stop offset="0" stop-color="#3d7600"/><stop offset="1" stop-color="#569e00"/></linearGradient><linearGradient id="linear-gradient-54" x1="869.72" y1="314.06" x2="873.9" y2="293.46" xlink:href="#linear-gradient-53"/><linearGradient id="linear-gradient-55" x1="872.51" y1="316.78" x2="876.61" y2="296.56" xlink:href="#linear-gradient-53"/><linearGradient id="linear-gradient-56" x1="875.22" y1="319.92" x2="879.03" y2="301.16" xlink:href="#linear-gradient-53"/><linearGradient id="linear-gradient-57" x1="877.51" y1="322.6" x2="881.19" y2="304.45" xlink:href="#linear-gradient-53"/><linearGradient id="linear-gradient-58" x1="879.69" y1="325.12" x2="883.38" y2="306.97" xlink:href="#linear-gradient-53"/><linearGradient id="linear-gradient-59" x1="881.7" y1="327.46" x2="885.24" y2="310" xlink:href="#linear-gradient-53"/><linearGradient id="linear-gradient-60" x1="883.47" y1="329.66" x2="886.81" y2="313.19" xlink:href="#linear-gradient-53"/><linearGradient id="linear-gradient-61" x1="884.93" y1="331.2" x2="888.05" y2="315.85" xlink:href="#linear-gradient-53"/><linearGradient id="linear-gradient-62" x1="886.2" y1="333.75" x2="889.28" y2="318.55" xlink:href="#linear-gradient-53"/><linearGradient id="linear-gradient-63" x1="887.3" y1="335.36" x2="890.25" y2="320.81" xlink:href="#linear-gradient-53"/><linearGradient id="linear-gradient-64" x1="888.23" y1="336.66" x2="891" y2="323.02" xlink:href="#linear-gradient-53"/><linearGradient id="linear-gradient-65" x1="889.33" y1="338.28" x2="892" y2="325.11" xlink:href="#linear-gradient-53"/><linearGradient id="linear-gradient-66" x1="890.59" y1="339.99" x2="893.07" y2="327.8" xlink:href="#linear-gradient-53"/><linearGradient id="linear-gradient-67" x1="892.2" y1="341.55" x2="894.49" y2="330.27" xlink:href="#linear-gradient-53"/><linearGradient id="linear-gradient-68" x1="811.33" y1="273.37" x2="816.13" y2="249.69" xlink:href="#linear-gradient-41"/><linearGradient id="linear-gradient-69" x1="805.42" y1="270.54" x2="810.22" y2="246.89" xlink:href="#linear-gradient-41"/><linearGradient id="linear-gradient-70" x1="798.82" y1="267.64" x2="803.72" y2="243.5" xlink:href="#linear-gradient-41"/><linearGradient id="linear-gradient-71" x1="792.26" y1="265.58" x2="797.19" y2="241.3" xlink:href="#linear-gradient-41"/><linearGradient id="linear-gradient-72" x1="784.15" y1="229.93" x2="928.4" y2="340.9" xlink:href="#linear-gradient-2"/><linearGradient id="linear-gradient-73" x1="-13.23" y1="107.93" x2="150.19" y2="233.64" gradientTransform="matrix(1, 0, 0, 1, 0, 0)" xlink:href="#linear-gradient"/><linearGradient id="linear-gradient-74" x1="-46.09" y1="-2.19" x2="257.25" y2="231.15" gradientTransform="matrix(0.9, 0.11, -0.15, 1.02, 62.04, 28.78)" xlink:href="#linear-gradient"/><linearGradient id="linear-gradient-75" x1="8.56" y1="13.94" x2="25.97" y2="27.33" gradientTransform="matrix(0.99, 0.13, -0.13, 0.99, 93.33, 55.16)" xlink:href="#linear-gradient-2"/><linearGradient id="linear-gradient-76" x1="-23.74" y1="-20.78" x2="-6.18" y2="-7.27" gradientTransform="translate(113.22 85.72) rotate(9.58)" xlink:href="#linear-gradient-2"/><linearGradient id="linear-gradient-77" x1="46.72" y1="69.35" x2="65.01" y2="83.42" gradientTransform="translate(40.58 -17.13) rotate(3.02)" xlink:href="#linear-gradient-2"/><linearGradient id="linear-gradient-78" x1="39.13" y1="64.86" x2="54.84" y2="76.95" gradientTransform="translate(40.58 -17.13) rotate(3.02)" xlink:href="#linear-gradient-2"/><linearGradient id="linear-gradient-79" x1="102.68" y1="168" x2="118" y2="179.78" gradientTransform="translate(-46.32 -118.41) rotate(-3.91)" xlink:href="#linear-gradient-2"/><linearGradient id="linear-gradient-80" x1="153.81" y1="285.61" x2="172.68" y2="300.12" gradientTransform="matrix(0.98, -0.2, 0.2, 0.98, -152.65, -216.02)" xlink:href="#linear-gradient-2"/><linearGradient id="linear-gradient-81" x1="174.44" y1="286.36" x2="193.38" y2="300.93" gradientTransform="matrix(0.95, -0.19, 0.2, 1, -181.54, -226.2)" xlink:href="#linear-gradient-2"/><linearGradient id="linear-gradient-82" x1="15" y1="20.15" x2="32.28" y2="33.44" gradientTransform="matrix(0.99, 0.13, -0.13, 0.99, 93.33, 55.16)" xlink:href="#linear-gradient-2"/><linearGradient id="linear-gradient-83" x1="21.11" y1="24.74" x2="37.12" y2="37.05" gradientTransform="matrix(0.99, 0.13, -0.13, 0.99, 93.33, 55.16)" xlink:href="#linear-gradient-2"/><linearGradient id="linear-gradient-84" x1="-53.46" y1="-51.34" x2="-37.16" y2="-38.8" gradientTransform="translate(153.85 146.44) rotate(13.38)" xlink:href="#linear-gradient-2"/><linearGradient id="linear-gradient-85" x1="-104.88" y1="-7.05" x2="-88.51" y2="5.54" gradientTransform="matrix(1.06, 0.25, -0.24, 1.02, 232.35, 125.33)" xlink:href="#linear-gradient-2"/><linearGradient id="linear-gradient-86" x1="-122.92" y1="-24.66" x2="-107.07" y2="-12.47" gradientTransform="matrix(1.05, 0.29, -0.28, 1.01, 251.15, 158.9)" xlink:href="#linear-gradient-2"/><linearGradient id="linear-gradient-87" x1="-153.43" y1="-51.09" x2="-136.3" y2="-37.91" gradientTransform="matrix(1.04, 0.34, -0.32, 1, 277.2, 208.15)" xlink:href="#linear-gradient-2"/><linearGradient id="linear-gradient-88" x1="-239.93" y1="-112.67" x2="-221.05" y2="-98.15" gradientTransform="matrix(0.99, 0.45, -0.43, 0.96, 329.12, 327.03)" xlink:href="#linear-gradient-2"/><linearGradient id="linear-gradient-89" x1="-231.26" y1="-107.86" x2="-214.46" y2="-94.93" gradientTransform="matrix(0.99, 0.45, -0.43, 0.96, 329.12, 327.03)" xlink:href="#linear-gradient-2"/><linearGradient id="linear-gradient-90" x1="-332.22" y1="-160.2" x2="-317.67" y2="-149.01" gradientTransform="matrix(0.93, 0.57, -0.55, 0.9, 372.42, 460.73)" xlink:href="#linear-gradient-2"/><linearGradient id="linear-gradient-91" x1="-327.54" y1="-155.69" x2="-312.55" y2="-144.16" gradientTransform="matrix(0.93, 0.57, -0.55, 0.9, 372.42, 460.73)" xlink:href="#linear-gradient-2"/><linearGradient id="linear-gradient-92" x1="-321.08" y1="-151.28" x2="-307.47" y2="-140.81" gradientTransform="matrix(0.93, 0.57, -0.55, 0.9, 372.42, 460.73)" xlink:href="#linear-gradient-2"/><linearGradient id="linear-gradient-93" x1="-316.66" y1="-148.23" x2="-302.34" y2="-137.22" gradientTransform="matrix(0.93, 0.57, -0.55, 0.9, 372.42, 460.73)" xlink:href="#linear-gradient-2"/><linearGradient id="linear-gradient-94" x1="-310.88" y1="-143.07" x2="-295.66" y2="-131.36" gradientTransform="matrix(0.93, 0.57, -0.55, 0.9, 372.42, 460.73)" xlink:href="#linear-gradient-2"/><linearGradient id="linear-gradient-95" x1="-309.2" y1="-140.08" x2="-288.35" y2="-124.03" gradientTransform="matrix(0.93, 0.57, -0.55, 0.9, 372.42, 460.73)" xlink:href="#linear-gradient-2"/><linearGradient id="linear-gradient-96" x1="-279.76" y1="-125.94" x2="-259.05" y2="-110.01" gradientTransform="matrix(0.94, 0.54, -0.52, 0.91, 363.97, 433.6)" xlink:href="#linear-gradient-2"/><linearGradient id="linear-gradient-97" x1="-277.44" y1="-120.22" x2="-257.65" y2="-104.99" gradientTransform="matrix(0.94, 0.54, -0.52, 0.91, 363.97, 433.6)" xlink:href="#linear-gradient-24"/><linearGradient id="linear-gradient-98" x1="-322.4" y1="-139.55" x2="-302.31" y2="-124.09" gradientTransform="matrix(0.91, 0.6, -0.57, 0.88, 382.5, 494.14)" xlink:href="#linear-gradient-24"/><linearGradient id="linear-gradient-99" x1="-319.73" y1="-134.52" x2="-301.08" y2="-120.17" gradientTransform="matrix(0.91, 0.6, -0.57, 0.88, 382.5, 494.14)" xlink:href="#linear-gradient-24"/><linearGradient id="linear-gradient-100" x1="-316.11" y1="-130.43" x2="-298.18" y2="-116.64" gradientTransform="matrix(0.91, 0.6, -0.57, 0.88, 382.5, 494.14)" xlink:href="#linear-gradient-24"/><linearGradient id="linear-gradient-101" x1="-312.74" y1="-127.63" x2="-293.34" y2="-112.71" gradientTransform="matrix(0.91, 0.6, -0.57, 0.88, 382.5, 494.14)" xlink:href="#linear-gradient-24"/><linearGradient id="linear-gradient-102" x1="-310.76" y1="-122.91" x2="-292.82" y2="-109.11" gradientTransform="matrix(0.91, 0.6, -0.57, 0.88, 382.5, 494.14)" xlink:href="#linear-gradient-24"/><linearGradient id="linear-gradient-103" x1="-309.43" y1="-119.28" x2="-292.92" y2="-106.58" gradientTransform="matrix(0.91, 0.6, -0.57, 0.88, 382.5, 494.14)" xlink:href="#linear-gradient-24"/><linearGradient id="linear-gradient-104" x1="-316.18" y1="-120.71" x2="-298.45" y2="-107.07" gradientTransform="matrix(0.91, 0.6, -0.58, 0.87, 385.95, 505.56)" xlink:href="#linear-gradient-24"/><linearGradient id="linear-gradient-105" x1="-314.09" y1="-117.08" x2="-296.09" y2="-103.23" gradientTransform="matrix(0.91, 0.6, -0.58, 0.87, 385.95, 505.56)" xlink:href="#linear-gradient-24"/><linearGradient id="linear-gradient-106" x1="-311.73" y1="-113.43" x2="-294.18" y2="-99.94" gradientTransform="matrix(0.91, 0.6, -0.58, 0.87, 385.95, 505.56)" xlink:href="#linear-gradient-24"/><linearGradient id="linear-gradient-107" x1="-390.6" y1="-139.91" x2="-372.66" y2="-126.11" gradientTransform="matrix(0.85, 0.68, -0.65, 0.82, 410.62, 601.8)" xlink:href="#linear-gradient-24"/><linearGradient id="linear-gradient-108" x1="-389.4" y1="-136.52" x2="-370.7" y2="-122.13" gradientTransform="matrix(0.85, 0.68, -0.65, 0.82, 410.62, 601.8)" xlink:href="#linear-gradient-24"/><linearGradient id="linear-gradient-109" x1="-387.04" y1="-133.73" x2="-368.62" y2="-119.56" gradientTransform="matrix(0.85, 0.68, -0.65, 0.82, 410.62, 601.8)" xlink:href="#linear-gradient-24"/><linearGradient id="linear-gradient-110" x1="-385.74" y1="-132.3" x2="-362.87" y2="-114.71" gradientTransform="matrix(0.85, 0.68, -0.65, 0.82, 410.62, 601.8)" xlink:href="#linear-gradient-24"/><linearGradient id="linear-gradient-111" x1="-618.22" y1="-172.32" x2="-595.84" y2="-155.1" gradientTransform="matrix(0.67, 0.86, -0.83, 0.64, 439.74, 876.84)" xlink:href="#linear-gradient-24"/><linearGradient id="linear-gradient-112" x1="-919.7" y1="-140.6" x2="-897.01" y2="-123.14" gradientTransform="matrix(0.38, 1.02, -0.98, 0.37, 381.37, 1226.86)" xlink:href="#linear-gradient-24"/><linearGradient id="linear-gradient-113" x1="-919.09" y1="-137.16" x2="-896.46" y2="-119.76" gradientTransform="matrix(0.38, 1.02, -0.98, 0.37, 381.37, 1226.86)" xlink:href="#linear-gradient-24"/><linearGradient id="linear-gradient-114" x1="-27.99" y1="70.18" x2="-19.63" y2="28.99" gradientTransform="matrix(0.99, 0.13, -0.13, 0.99, 93.33, 55.16)" xlink:href="#linear-gradient-41"/><linearGradient id="linear-gradient-115" x1="-22.15" y1="75.57" x2="-13.33" y2="32.15" gradientTransform="matrix(0.99, 0.13, -0.13, 0.99, 93.33, 55.16)" xlink:href="#linear-gradient-41"/><linearGradient id="linear-gradient-116" x1="-16.98" y1="79.09" x2="-7.95" y2="34.6" gradientTransform="matrix(0.99, 0.13, -0.13, 0.99, 93.33, 55.16)" xlink:href="#linear-gradient-41"/><linearGradient id="linear-gradient-117" x1="-9.14" y1="86.43" x2="0.16" y2="40.6" gradientTransform="matrix(0.99, 0.13, -0.13, 0.99, 93.33, 55.16)" xlink:href="#linear-gradient-41"/><linearGradient id="linear-gradient-118" x1="-1.04" y1="92.13" x2="8.09" y2="47.16" gradientTransform="matrix(0.99, 0.13, -0.13, 0.99, 93.33, 55.16)" xlink:href="#linear-gradient-41"/><linearGradient id="linear-gradient-119" x1="6.95" y1="98.88" x2="16.08" y2="53.9" gradientTransform="matrix(0.99, 0.13, -0.13, 0.99, 93.33, 55.16)" xlink:href="#linear-gradient-41"/><linearGradient id="linear-gradient-120" x1="14.18" y1="102.86" x2="23.31" y2="57.88" gradientTransform="matrix(0.99, 0.13, -0.13, 0.99, 93.33, 55.16)" xlink:href="#linear-gradient-41"/><linearGradient id="linear-gradient-121" x1="21.16" y1="108.81" x2="29.97" y2="65.39" gradientTransform="matrix(0.99, 0.13, -0.13, 0.99, 93.33, 55.16)" xlink:href="#linear-gradient-41"/><linearGradient id="linear-gradient-122" x1="26.76" y1="114.48" x2="35.61" y2="70.88" gradientTransform="matrix(0.99, 0.13, -0.13, 0.99, 93.33, 55.16)" xlink:href="#linear-gradient-41"/><linearGradient id="linear-gradient-123" x1="33.67" y1="120.19" x2="42.04" y2="78.93" gradientTransform="matrix(0.99, 0.13, -0.13, 0.99, 93.33, 55.16)" xlink:href="#linear-gradient-41"/><linearGradient id="linear-gradient-124" x1="39.96" y1="125.5" x2="48.29" y2="84.47" gradientTransform="matrix(0.99, 0.13, -0.13, 0.99, 93.33, 55.16)" xlink:href="#linear-gradient-41"/><linearGradient id="linear-gradient-125" x1="45.49" y1="132.01" x2="53.77" y2="91.18" gradientTransform="matrix(0.99, 0.13, -0.13, 0.99, 93.33, 55.16)" xlink:href="#linear-gradient-41"/><linearGradient id="linear-gradient-126" x1="50.06" y1="137.03" x2="58.25" y2="96.7" gradientTransform="matrix(0.99, 0.13, -0.13, 0.99, 93.33, 55.16)" xlink:href="#linear-gradient-53"/><linearGradient id="linear-gradient-127" x1="54.56" y1="142.28" x2="62.58" y2="102.79" gradientTransform="matrix(0.99, 0.13, -0.13, 0.99, 93.33, 55.16)" xlink:href="#linear-gradient-53"/><linearGradient id="linear-gradient-128" x1="58.86" y1="147.2" x2="66.72" y2="108.46" gradientTransform="matrix(0.99, 0.13, -0.13, 0.99, 93.33, 55.16)" xlink:href="#linear-gradient-53"/><linearGradient id="linear-gradient-129" x1="63" y1="152.95" x2="70.3" y2="116.97" gradientTransform="matrix(0.99, 0.13, -0.13, 0.99, 93.33, 55.16)" xlink:href="#linear-gradient-53"/><linearGradient id="linear-gradient-130" x1="66.51" y1="157.85" x2="73.57" y2="123.07" gradientTransform="matrix(0.99, 0.13, -0.13, 0.99, 93.33, 55.16)" xlink:href="#linear-gradient-53"/><linearGradient id="linear-gradient-131" x1="69.85" y1="162.46" x2="76.91" y2="127.67" gradientTransform="matrix(0.99, 0.13, -0.13, 0.99, 93.33, 55.16)" xlink:href="#linear-gradient-53"/><linearGradient id="linear-gradient-132" x1="72.91" y1="166.74" x2="79.71" y2="133.26" gradientTransform="matrix(0.99, 0.13, -0.13, 0.99, 93.33, 55.16)" xlink:href="#linear-gradient-53"/><linearGradient id="linear-gradient-133" x1="75.62" y1="170.76" x2="82.02" y2="139.19" gradientTransform="matrix(0.99, 0.13, -0.13, 0.99, 93.33, 55.16)" xlink:href="#linear-gradient-53"/><linearGradient id="linear-gradient-134" x1="77.86" y1="173.58" x2="83.83" y2="144.14" gradientTransform="matrix(0.99, 0.13, -0.13, 0.99, 93.33, 55.16)" xlink:href="#linear-gradient-53"/><linearGradient id="linear-gradient-135" x1="79.73" y1="178.31" x2="85.65" y2="149.18" gradientTransform="matrix(0.99, 0.13, -0.13, 0.99, 93.33, 55.16)" xlink:href="#linear-gradient-53"/><linearGradient id="linear-gradient-136" x1="81.39" y1="181.28" x2="87.05" y2="153.37" gradientTransform="matrix(0.99, 0.13, -0.13, 0.99, 93.33, 55.16)" xlink:href="#linear-gradient-53"/><linearGradient id="linear-gradient-137" x1="82.8" y1="183.67" x2="88.11" y2="157.51" gradientTransform="matrix(0.99, 0.13, -0.13, 0.99, 93.33, 55.16)" xlink:href="#linear-gradient-53"/><linearGradient id="linear-gradient-138" x1="84.45" y1="186.66" x2="89.58" y2="161.4" gradientTransform="matrix(0.99, 0.13, -0.13, 0.99, 93.33, 55.16)" xlink:href="#linear-gradient-53"/><linearGradient id="linear-gradient-139" x1="86.38" y1="189.8" x2="91.12" y2="166.43" gradientTransform="matrix(0.99, 0.13, -0.13, 0.99, 93.33, 55.16)" xlink:href="#linear-gradient-53"/><linearGradient id="linear-gradient-140" x1="88.85" y1="192.63" x2="93.24" y2="171" gradientTransform="matrix(0.99, 0.13, -0.13, 0.99, 93.33, 55.16)" xlink:href="#linear-gradient-53"/><linearGradient id="linear-gradient-141" x1="-36.56" y1="69.89" x2="-27.36" y2="24.55" gradientTransform="matrix(0.99, 0.13, -0.13, 0.99, 93.33, 55.16)" xlink:href="#linear-gradient-41"/><linearGradient id="linear-gradient-142" x1="-45.86" y1="65.02" x2="-36.67" y2="19.72" gradientTransform="matrix(0.99, 0.13, -0.13, 0.99, 93.33, 55.16)" xlink:href="#linear-gradient-41"/><linearGradient id="linear-gradient-143" x1="-56.28" y1="60.06" x2="-46.89" y2="13.84" gradientTransform="matrix(0.99, 0.13, -0.13, 0.99, 93.33, 55.16)" xlink:href="#linear-gradient-41"/><linearGradient id="linear-gradient-144" x1="-66.67" y1="56.7" x2="-57.23" y2="10.22" gradientTransform="matrix(0.99, 0.13, -0.13, 0.99, 93.33, 55.16)" xlink:href="#linear-gradient-41"/><linearGradient id="linear-gradient-145" x1="-84.4" y1="-0.91" x2="153.44" y2="182.05" gradientTransform="matrix(0.99, 0.13, -0.13, 0.99, 93.33, 55.16)" xlink:href="#linear-gradient-2"/></defs><g class="cls-1"><g id="Layer_2" data-name="Layer 2"><g id="Layer_8" data-name="Layer 8"><path class="cls-2" d="M29.81,32.73l.34,2,.85-.09C33.23,48.07,44.34,61.3,44.34,61.3c-.86-8.29-9.65-22.24-12.6-26.71,2.26-.23,4.48-.42,6.67-.59C40.3,47.59,51,61,51,61c-.3-3.67-2-8.38-4.14-12.91A61.08,61.08,0,0,0,51,52.63c-.51-5.36-8.36-15.27-11.23-18.72q3-.21,5.87-.33c1.78,13.1,12.27,26.18,12.27,26.18-.64-8.3-9-22-11.61-26.21,1.76-.07,3.49-.13,5.19-.16C54.19,47.06,65,60.4,65,60.4c-1.09-8.57-9.53-22.2-12.66-27,1.32,0,2.63,0,3.93,0v0l0,0q1.5,0,3,0c-1,9.87,9,24.09,9,24.09,1-6.35-7.14-21.26-8.72-24.08.91,0,1.82,0,2.71.07,1.73,13,11.8,26.2,11.8,26.2-.61-8.35-8.48-21.88-11.1-26.18l3.16.13c1.54,12.87,11.56,26.21,11.56,26.21-.6-8.52-8.71-22.36-11-26.18q3,.16,5.91.41C74,47.21,84,61.18,84,61.18c-.62-9.11-9.3-24-11.13-27.1q3,.27,5.95.61C80.06,47.57,90,61.48,90,61.48c-.6-9.21-9.48-24.31-11-26.77q3,.36,5.84.8C85.94,48.11,95.73,62,95.73,62c-.59-9.4-9.81-24.84-10.79-26.44,1.74.26,3.43.55,5.09.86C89.2,44.32,96.31,56,96.31,56a6.83,6.83,0,0,0,.16-1.57,76.25,76.25,0,0,0,4.78,8.12c-.49-8.25-7.67-21.11-9.91-24.93l-.51-1.14c1.81.35,3.59.71,5.33,1.1,1.15,12.4,10.35,26.24,10.35,26.24-.53-9-8.43-23.27-10.09-26.18,1.49.34,3,.69,4.37,1C102.06,51.12,110.9,65,110.9,65c-.49-8.85-7.65-22.47-9.66-26.13,2.25.58,4.43,1.2,6.55,1.84.25,11.45,7.75,24.83,7.75,24.83.23-8.25-5.62-21.16-7.31-24.69,1.24.38,2.46.78,3.66,1.18,1,11.27,9.25,24.37,9.25,24.37-.42-8.52-7.41-21.47-9-24.28q2.45.82,4.76,1.7c1,10.91,8.62,23.76,8.62,23.76-.4-8.3-6.76-20.71-8.32-23.64,1.12.43,2.22.86,3.3,1.3.91,10.76,9.19,23.57,9.19,23.57-.33-8.28-7.11-20.45-8.84-23.43,1.26.52,2.48,1,3.68,1.57.74,10.41,9.08,23.13,9.08,23.13-.28-8.39-7.45-20.68-8.86-23,1.22.54,2.4,1.09,3.56,1.64.74,10,9,22.33,9,22.33-.22-8-6.93-19.41-8.61-22.16,1.68.81,3.31,1.63,4.87,2.45.76,9.46,6.57,21.4,6.57,21.4C139.77,65,135,54,133.78,51.41c1.31.69,2.58,1.39,3.8,2.08l2,1.15c.6,8.93,7.35,20.58,7.35,20.58a28.74,28.74,0,0,0-1.4-7.5,76.25,76.25,0,0,0,4.1,8.72,25.92,25.92,0,0,0-1-6,78.59,78.59,0,0,0,3.39,7.17,24.57,24.57,0,0,0-.59-4.6c1.45,3.31,2.77,5.69,2.77,5.69a20.47,20.47,0,0,0-.41-3.74c1.25,2.78,2.33,4.72,2.33,4.72a20.62,20.62,0,0,0-.28-3.08c1.06,2.35,1.93,4,1.93,4a17.7,17.7,0,0,0-.18-2.49c.88,2,1.56,3.23,1.56,3.23a18.41,18.41,0,0,0-.22-2.93c1,2.26,1.77,3.8,1.77,3.8a20,20,0,0,0-.43-4.17c1.17,2.92,2.3,5.17,2.3,5.17a23.74,23.74,0,0,0-1.28-7.07,63.89,63.89,0,0,0,3.45,7.34c-.14-4.24-2.14-8.53-3.55-11.08,5.15,6.78,14.26,15.44,14.26,15.44-4.15-6.88-10.89-13.54-14.32-16.71a109.2,109.2,0,0,0,11.84,7,37.54,37.54,0,0,0-10.07-7.21,90.46,90.46,0,0,0,12.15,3.21,34.88,34.88,0,0,0-8.42-3.5c4.8.24,9.42,0,9.42,0-6.84-2.33-15.61-1.74-17.26-1.6l-.77-.79c5,1.39,15.07-.1,15.07-.1-6.67-1.85-14.55-.05-15.09.08-.43-.43-.86-.87-1.3-1.3,5.3,1.12,15.32-.44,15.32-.44-6.54-1.56-14.05,0-15.46.3l-1.29-1.24c6,.78,17.06-2,17.06-2-7.56-1.1-15.84,1.43-17.17,1.86l-.71-.66c6.41-.09,16.95-4.17,16.95-4.17-7.5-.28-15.18,3-17.24,3.91-.5-.45-1-.91-1.53-1.36,6.77-.19,17.91-4.63,17.91-4.63-8-.15-16.08,3.38-18.21,4.37l-1.55-1.28C157.94,61,169.36,56,169.36,56c-8.33.2-16.62,4.14-18.87,5.29-.47-.38-1-.76-1.45-1.13,7.13-.65,18.57-5.89,18.57-5.89a38.33,38.33,0,0,0-9.21,1.68c5-1.89,9.26-4,9.26-4-9.77.66-19.23,6.15-20.42,6.86l-1.76-1.24c8.68-1.3,22.08-8.67,22.08-8.67-10.15.94-19.86,6.64-22.56,8.34l-1.95-1.28c8.44-1.4,21.49-8.88,21.49-8.88-10,1.17-19.45,7-21.91,8.61-.72-.45-1.46-.91-2.23-1.37,8.85-1.54,22.68-9.68,22.68-9.68-10.75,1.51-20.75,7.94-23,9.48-.81-.49-1.66-1-2.53-1.46,9.76-1.76,25.25-11.05,25.25-11.05-12.26,2-23.48,9.51-25.49,10.91-.91-.51-1.87-1-2.85-1.54,9.42-1.89,24.43-12,24.43-12-12.25,2.39-23.2,10.82-24.55,11.89-.95-.5-1.93-1-2.95-1.51C142,47,158.87,35,158.87,35c-14.11,3.17-26.42,13.4-27.58,14.38q-2.94-1.46-6.28-3c10.35-3.4,25.58-16.44,25.58-16.44-13.14,4.08-24,14.52-25.83,16.33-1-.47-2.09-.93-3.18-1.4l-1.19-.51c10.66-3.58,26.47-17.92,26.47-17.92-14,4.66-25.32,16.52-26.59,17.87-1.07-.44-2.14-.88-3.21-1.29,10.76-3.83,26.47-18.47,26.47-18.47C129.24,29.65,118,41.9,117,43c-1.45-.56-2.89-1.1-4.34-1.6,11.65-4.47,27.91-19.2,27.91-19.2C125.9,27.49,114.42,39,112.31,41.26c-2.51-.88-5-1.67-7.52-2.4,12.21-6.12,27.76-23.44,27.76-23.44C117,23,106.3,36.43,104.5,38.78q-2.93-.86-5.84-1.57C111,31.7,127.32,14.53,127.32,14.53,111,21.76,99.71,35.7,98.54,37.18l-2.35-.56c11.18-6.88,24.73-25.53,24.73-25.53-13.81,7.85-23.2,22-25.3,25.4-1.37-.32-2.74-.62-4.1-.89C102,28.48,114.37,9.1,114.37,9.1c-13.2,8.47-21.64,23.37-23.27,26.41l-.83-.16c0-.08-.07-.05-.08,0-1.27-.25-2.53-.48-3.78-.7C96.93,27.07,108.7,7.9,108.7,7.9,95.69,16.52,87.64,31,85.8,34.53c-2-.35-4-.65-6-.93l.24-.23C90.27,26,101.44,6.24,101.44,6.24a55.15,55.15,0,0,0-8.32,7.33c1.74-3.54,2.77-6,2.77-6-10.73,9.24-15.56,22.32-16.75,26-1.51-.2-3-.38-4.46-.55C83.3,25.75,92.12,7.14,92.12,7.14c-11.06,9-16.8,23.4-17.69,25.79-1.63-.18-3.23-.34-4.8-.47C78.84,23.81,87.47,4.58,87.47,4.58,76.2,14,70.31,28.11,68.72,32.38q-3.41-.29-6.62-.45C72.23,23.39,82.28,2.34,82.28,2.34a55.81,55.81,0,0,0-8.36,8.33C76.2,5.09,77.56.79,77.56.79c-11.45,11.65-15.49,28.59-16,31.11-1.44-.07-2.84-.12-4.21-.16l.26-.49C65.78,22.06,72.65,2.39,72.65,2.39a55.36,55.36,0,0,0-9.84,13.48c2-8.24,3-15.69,3-15.69a44,44,0,0,0-2.62,4.7C55.21,14.46,51.89,27.39,51,31.64c-1.56,0-3,0-4.47,0C53.06,21.37,56.11.07,56.11.07c-8.33,11.69-10,27.3-10.33,31.62-2.5.06-4.77.15-6.75.26C44.35,21.41,46,0,46,0c-6.85,11.84-7.6,27.5-7.67,32-3.35.2-5.83.44-7.22.59C36.13,22,37,1.27,37,1.27,30.49,13,30.19,28,30.27,32.67ZM157.93,68.51l1.66,1.54.24.36a17,17,0,0,0,.85,3.85A41.37,41.37,0,0,0,157.93,68.51Zm-9.2-8.63c-.46-.35-.93-.69-1.41-1a32.92,32.92,0,0,0,7-1.52A54.4,54.4,0,0,0,148.73,59.88Zm7.42,7c.56.5,1.11,1,1.63,1.46a14.18,14.18,0,0,0,.33,2.68C157.38,69.31,156.65,67.85,156.15,66.91Zm-2-1.74,1.4,1.21a17.46,17.46,0,0,0,.23,2.07C155.12,67,154.52,65.88,154.14,65.17Zm-1.8-1.49,1.36,1.12a15.53,15.53,0,0,0,.18,1.87C153.24,65.33,152.68,64.29,152.34,63.68ZM150.25,62c.6.47,1.19.94,1.76,1.41a20.4,20.4,0,0,0,.3,2.59C151.41,64.08,150.6,62.63,150.25,62Zm-2.06-1.56c.63.47,1.26.94,1.87,1.42a19.67,19.67,0,0,0,.37,3C149.51,62.9,148.66,61.31,148.19,60.45ZM146,58.88l1.78,1.29a21.41,21.41,0,0,0,.48,3.43C147.44,61.64,146.61,60,146,58.88Zm-2.94-2,1.19.8,0,0h.06l1,.67a29.72,29.72,0,0,0,1,5.21C145.06,60.64,143.81,58.19,143.1,56.87Zm-3.19-2c.9.55,1.78,1.11,2.65,1.67a32.71,32.71,0,0,0,1.47,7A80,80,0,0,0,139.91,54.85Zm-88-23.21A54.76,54.76,0,0,0,58,20.77a90.85,90.85,0,0,0-1.56,10.94C54.85,31.67,53.33,31.65,51.87,31.64Zm75.05,15.58c10.34-2.26,26.71-13,26.71-13C139.23,37.5,126.92,47.22,126.92,47.22Zm-18.69-7.37c12.15-4.51,29.32-20.38,29.32-20.38C120.66,25.88,108.23,39.85,108.23,39.85ZM144,74c-.2-8.45-7.59-20.67-7.59-20.67C136.8,62.22,144,74,144,74Z"/><path class="cls-3" d="M69.3,32.36S79.51,13.69,86.58,5.75A69,69,0,0,0,69.3,32.36Z"/><path class="cls-4" d="M62.16,31.06S73.45,11.74,80.82,4C80.82,4,68.45,14.9,62.16,31.06Z"/><path class="cls-5" d="M56.81,31.31S65.93,11.43,72.23,3C72.23,3,60.94,14.57,56.81,31.31Z"/><path class="cls-6" d="M51.22,31.23s7.6-19.43,13.9-27.87A72.4,72.4,0,0,0,51.22,31.23Z"/><path class="cls-7" d="M46.13,31.78s4.74-22,9.82-31A69.33,69.33,0,0,0,46.13,31.78Z"/><path class="cls-8" d="M38.82,31.72C40.89,18.21,42.14,10.28,45.9.46,45.9.46,38.9,12.77,38.82,31.72Z"/><path class="cls-9" d="M30.73,32.9c1.67-13.42,2.68-21.29,6.15-31C36.88,1.91,30.25,14,30.73,32.9Z"/><path class="cls-10" d="M74.82,32.63S84.71,15.37,91.47,8A65.94,65.94,0,0,0,74.82,32.63Z"/><path class="cls-11" d="M79.36,33.37s9.47-17.58,16.06-25A64.23,64.23,0,0,0,79.36,33.37Z"/><path class="cls-12" d="M79.9,32.86S91.35,16.26,98.76,9.42A66.49,66.49,0,0,0,79.9,32.86Z"/><path class="cls-13" d="M86.7,34S99.37,16.36,107.52,9.07A73.33,73.33,0,0,0,86.7,34Z"/><path class="cls-14" d="M91.35,35.52s13.43-18.31,21.85-25.35C113.2,10.17,99.7,20.05,91.35,35.52Z"/><path class="cls-15" d="M96,36.53s15.35-18.12,24.16-24.78C120.11,11.75,105.16,21.45,96,36.53Z"/><path class="cls-16" d="M99,36.89s18.16-16.22,27.78-22C126.75,14.93,110.05,22.85,99,36.89Z"/><path class="cls-17" d="M104.93,38.7S120,23.91,132,15.78A92.94,92.94,0,0,0,104.93,38.7Z"/><path class="cls-18" d="M108.71,39.65a205.22,205.22,0,0,1,28-19.82A95,95,0,0,0,108.71,39.65Z"/><path class="cls-19" d="M112.33,41.48a227,227,0,0,1,27.42-18.81S126.08,27.53,112.33,41.48Z"/><path class="cls-20" d="M117.18,43a175.65,175.65,0,0,1,25.74-18A82.76,82.76,0,0,0,117.18,43Z"/><path class="cls-21" d="M120.47,44.2a210.12,210.12,0,0,1,25.59-17.29A73.86,73.86,0,0,0,120.47,44.2Z"/><path class="cls-22" d="M124.88,46.32s9.64-7.09,25.17-16.1C150.05,30.22,137.62,34.22,124.88,46.32Z"/><path class="cls-23" d="M127.11,47.13s14.13-7.64,26.24-12.8C153.35,34.33,141.72,36.85,127.11,47.13Z"/><path class="cls-24" d="M132.09,48.9s13.9-8,25.85-13.39C157.94,35.51,146.39,38.28,132.09,48.9Z"/><path class="cls-25" d="M134.51,51s11.83-6.66,23.83-11.77A69.59,69.59,0,0,0,134.51,51Z"/><path class="cls-26" d="M137.71,52.37S150,46.3,162.28,41.79A70.91,70.91,0,0,0,137.71,52.37Z"/><path class="cls-27" d="M140.08,54.27a169.57,169.57,0,0,1,22.47-9.47S152.83,45.74,140.08,54.27Z"/><path class="cls-28" d="M142.84,56a163.4,163.4,0,0,1,21.32-8.81A55.12,55.12,0,0,0,142.84,56Z"/><path class="cls-29" d="M145.19,57.42s9.65-4.23,21.94-8.34A58.77,58.77,0,0,0,145.19,57.42Z"/><path class="cls-30" d="M147.37,58.87s8.71-3.56,19.27-6.63C166.64,52.24,158.66,52.78,147.37,58.87Z"/><path class="cls-31" d="M148.92,60s6.48-2.29,17-5.36C166,54.6,159.83,54.82,148.92,60Z"/><path class="cls-32" d="M150.67,61.36s7.39-2.26,18-5.22C168.67,56.14,161.64,56.33,150.67,61.36Z"/><path class="cls-33" d="M152.34,63s7.3-2.12,17.47-4.46A60.2,60.2,0,0,0,152.34,63Z"/><path class="cls-34" d="M154.11,64.64a144.35,144.35,0,0,1,16.71-4A49.79,49.79,0,0,0,154.11,64.64Z"/><path class="cls-35" d="M155.28,65.49s6.62-1,16.28-2A50.35,50.35,0,0,0,155.28,65.49Z"/><path class="cls-36" d="M156.61,66.74a118.64,118.64,0,0,1,15.09-.39S166.33,65,156.61,66.74Z"/><path class="cls-37" d="M158.17,68.15A88.33,88.33,0,0,1,172.73,68,38.43,38.43,0,0,0,158.17,68.15Z"/><path class="cls-38" d="M159.15,69.09s8.19.73,16.42,1.33A53.71,53.71,0,0,0,159.15,69.09Z"/><path class="cls-39" d="M159.65,69.37s7.06,2.2,15,4.47A46.3,46.3,0,0,0,159.65,69.37Z"/><path class="cls-40" d="M159.36,69.5s6.21,3.88,13,8.12A46,46,0,0,0,159.36,69.5Z"/><path class="cls-41" d="M160.6,70.66s5.7,6.53,13.65,15.46A104.57,104.57,0,0,0,160.6,70.66Z"/><path class="cls-42" d="M59.42,33.46S66.3,52.93,68.29,57C68.29,57,59.37,44.43,59.42,33.46Z"/><path class="cls-43" d="M63,33.61S71.43,54.1,73.61,58.08C73.61,58.08,63.45,44.58,63,33.61Z"/><path class="cls-44" d="M66.52,33.45S69.41,43,77.36,58.54C77.36,58.54,68.26,45.81,66.52,33.45Z"/><path class="cls-45" d="M72.79,34.2s3.73,10.55,10.84,25.93C83.63,60.13,74.53,46.56,72.79,34.2Z"/><path class="cls-46" d="M79,35.21s3.47,10.08,10.59,25.46C89.63,60.67,80.78,47.57,79,35.21Z"/><path class="cls-47" d="M85.31,36.33s3.47,10.08,10.58,25.46C95.89,61.79,87.05,48.7,85.31,36.33Z"/><path class="cls-48" d="M90.45,36.36S93.92,46.44,101,61.82C101,61.82,92.19,48.72,90.45,36.36Z"/><path class="cls-49" d="M96.41,38.07s2.72,9.28,9.84,24.67C106.25,62.74,98.15,50.43,96.41,38.07Z"/><path class="cls-50" d="M101.24,39.14s2.33,9.51,9.44,24.89C110.68,64,103,51.51,101.24,39.14Z"/><path class="cls-51" d="M108,40.93s0,9,7.35,23.95C115.39,64.88,111.12,52.7,108,40.93Z"/><path class="cls-52" d="M112.07,42.16s.43,8.52,8.76,23.44C120.83,65.6,115.65,52.82,112.07,42.16Z"/><path class="cls-53" d="M117.19,43.81s0,8.5,8.34,23.43C125.53,67.24,120.76,54.48,117.19,43.81Z"/><path class="cls-54" d="M120.76,45.33s.45,8.08,8.78,23C129.54,68.34,124.33,56,120.76,45.33Z"/><path class="cls-55" d="M124.71,47.06s.4,7.57,8.72,22.49C133.43,69.55,128.28,57.72,124.71,47.06Z"/><path class="cls-56" d="M128.47,48.63s.07,7.26,8.75,22C137.22,70.66,132.37,59.19,128.47,48.63Z"/><path class="cls-57" d="M133.66,51.36s.54,7.55,6.39,20.89C140.05,72.25,136.39,60.78,133.66,51.36Z"/><path class="cls-58" d="M136.43,53.5s.17,6.83,7.37,19.89C143.8,73.39,139.69,63.21,136.43,53.5Z"/><path class="cls-59" d="M139.74,54.73s-.15,6.92,7,20C146.79,74.71,143,64.44,139.74,54.73Z"/><path class="cls-60" d="M143,56.54s-.64,6.21,6.57,19.27C149.53,75.81,146.21,66.25,143,56.54Z"/><path class="cls-61" d="M145.56,58.71s.25,6.5,6.38,18.13C151.94,76.84,148.81,68.42,145.56,58.71Z"/><path class="cls-62" d="M148.07,60.44s-.4,5.33,5.74,17C153.81,77.4,151.32,70.16,148.07,60.44Z"/><path class="cls-63" d="M150.28,62.34s-.32,5.12,5.81,16.75C156.09,79.09,153.53,72.05,150.28,62.34Z"/><path class="cls-64" d="M152.29,63.86s-.71,4.45,5.42,16.08C157.71,79.94,155.54,73.57,152.29,63.86Z"/><path class="cls-65" d="M154.07,65.43s-1.16,3.48,5,15.11C159,80.54,157.32,75.15,154.07,65.43Z"/><path class="cls-66" d="M155.91,66.84s-.09,5.56,4.62,14.63C160.53,81.47,159.17,76.56,155.91,66.84Z"/><path class="cls-67" d="M158,68.75s-.34,4.44,4.38,13.51C162.39,82.26,161.26,78.46,158,68.75Z"/><path class="cls-68" d="M160,70.39s-.12,3.3,4.6,12.37C164.59,82.76,163.25,80.1,160,70.39Z"/><path class="cls-69" d="M52.09,33.89s10,21.36,12.52,25.2C64.61,59.09,53.48,44.82,52.09,33.89Z"/><path class="cls-70" d="M45.9,33.9s9.34,21.51,11.84,25.34C57.74,59.24,47.29,44.83,45.9,33.9Z"/><path class="cls-71" d="M38.7,33.72s9.23,22.13,11.73,26C50.43,59.68,40.1,44.66,38.7,33.72Z"/><path class="cls-72" d="M31.4,34.77S41.51,56.84,44.06,60.65C44.06,60.65,33,45.69,31.4,34.77Z"/><path class="cls-73" d="M30.27,33.58s70.18-10.9,122.8,30c0,0-43.08-39.34-123.57-30.47Z"/><path class="cls-74" d="M72.25,181.89c9.49,6.05,30.82,9.92,30.82,9.92C89.77,183.48,72.25,181.89,72.25,181.89ZM61,216.19c7.33-6.9,12.77-22.27,12.77-22.27C66.15,201.37,61,216.19,61,216.19ZM75.11,194c-.21-1.1-.45-2.24-.7-3.4l.09.06h0c8.54,5.61,28.16,9,28.16,9-11-7.39-26.37-9-28.29-9.15-.25-1.12-.52-2.26-.8-3.44,9.83,6.18,32.66,9.37,32.66,9.37-13-8.19-31-9.37-32.69-9.47q-.84-3.39-1.92-7.15c10.5,5.16,33.06,6.31,33.06,6.31-13.12-6.72-30.23-6.65-33.14-6.58-.34-1.15-.69-2.33-1.07-3.53-.13-.44-.28-.88-.42-1.31,10.9,5.24,35,5.8,35,5.8-14.23-6.9-32.94-6.05-35.06-5.93-.38-1.17-.77-2.33-1.18-3.47l.16.07h0c11.24,5,35.32,5.28,35.32,5.28-14.87-6.78-33.87-5.56-35.53-5.43-.55-1.55-1.12-3.07-1.72-4.58,12.39,5.28,37.18,5.87,37.18,5.87C89,165.36,70.43,165.86,67,166c-1-2.6-2.16-5.15-3.33-7.63,14.26,4.39,40.83,2.37,40.83,2.37-17.92-5.77-37.59-3.17-41-2.66q-1.38-2.9-2.85-5.68c13.83,5,40.81,3.65,40.81,3.65-18.19-6.58-38.71-4.06-40.87-3.77l-1.2-2.23c14.17,3,40.48-1.6,40.48-1.6-17-4.22-36.3,0-40.78,1.06q-1.08-1.93-2.19-3.83c13.9,2.29,40-3.8,40-3.8-17.05-3.26-36.34,2.22-40.2,3.41-.16-.25-.31-.5-.46-.75,0-.09,0-.1-.05-.08-.69-1.16-1.4-2.3-2.12-3.43,14.31,2,39.79-4.41,39.79-4.41-17-3-35.67,2.43-40.14,3.86-1.15-1.8-2.33-3.57-3.51-5.28h.38C64.49,137.09,90,129.8,90,129.8a63.31,63.31,0,0,0-12.5-.46c4.38-1.51,7.32-2.71,7.32-2.71-15.94-.76-31,6-35.08,8q-1.37-1.95-2.74-3.82c12.61.79,35.46-7.38,35.46-7.38-15.95-1.23-32.86,5.93-35.62,7.16q-1.53-2.07-3.06-4c14.32.08,37.57-8.71,37.57-8.71-16.44-1.08-33.22,5.75-38.15,8Q41,123,38.82,120.44c14.89.87,40.78-8.31,40.78-8.31a66,66,0,0,0-13.42.3c6.59-2.72,11.37-5.12,11.37-5.12C59,107.92,41.07,118.37,38.43,120q-1.47-1.73-2.9-3.33l.61-.19c14.08-1.1,36.44-11.59,36.44-11.59a68.84,68.84,0,0,0-19,3.29c8.73-5.08,16-10.28,16-10.28a54.65,54.65,0,0,0-6,1.76c-14.23,1.62-28.06,9.42-32.48,12.12q-1.7-1.78-3.28-3.37c13.86-3.24,34.91-17.94,34.91-17.94-16.37,3-31.4,14.2-35.44,17.41-1.86-1.86-3.59-3.5-5.12-4.92C35.27,98.56,55.39,82.7,55.39,82.7,40,87,25.58,98.89,21.55,102.43c-2.6-2.39-4.6-4.08-5.74-5,13-4.66,32-20.5,32-20.5C32.7,81.28,19.17,93.07,15.11,96.85c-.24-.2-.38-.3-.38-.3l-.25.3-.29-.25.06.53-1.06,1.28.7.58C3.65,111.4,0,130.4,0,130.4c6.71-7.27,12.67-25.09,14.49-30.9q2.76,2.3,5.34,4.6C9.19,116.39,5.08,135.24,5.08,135.24c3-3.15,5.94-8.24,8.42-13.45a66.94,66.94,0,0,0-1,6.76c4.37-4.67,7.44-18.54,8.42-23.49q2.34,2.1,4.54,4.2C15.17,121.08,11.2,139.5,11.2,139.5c6.88-7.12,13-24.38,14.77-29.76q2,1.92,3.9,3.82c-10.15,13-14.08,31.85-14.08,31.85,6.78-7.67,12.72-25,14.71-31.2,1,1,1.94,2,2.87,3l0,0,.07,0c.72.76,1.43,1.52,2.12,2.28-9.42,7.16-14.75,26.11-14.75,26.11,6.33-4.33,13.63-22.41,15-25.86.64.7,1.28,1.4,1.9,2.11C27.4,133.53,23,151.72,23,151.72c6.94-7.12,13.2-23.91,15.1-29.33.74.83,1.46,1.67,2.17,2.51C30,136.34,25.5,154.6,25.5,154.6c7.1-7.25,13.46-24.47,15.14-29.29q2,2.41,3.92,4.82c-10.65,11.52-15.71,30.33-15.71,30.33,7.61-7.75,14.53-26.28,15.9-30.09q2,2.5,3.77,5C38,146.57,32.9,165.22,32.9,165.22c7.71-7.81,14.63-26.61,15.73-29.7q1.84,2.55,3.53,5.07C41.79,151.47,36.64,170,36.64,170s.26-.27.39-.42l-.12.42c.09-.19.17-.38.26-.56,7.66-8.26,14.33-26.77,15-28.75q1.53,2.29,2.93,4.56c-7.62,5.71-12.84,20.47-12.84,20.47a9.55,9.55,0,0,0,1.51-1.13,91.43,91.43,0,0,0-3.72,10.12c6.94-7,13.1-22.69,14.86-27.44l.63-1.3q1.53,2.48,2.89,4.92c-10.13,10.79-15.7,28.83-15.7,28.83,7.61-7.62,14.48-25,15.84-28.58q1.17,2.1,2.24,4.16C50.81,166.12,45,183.91,45,183.91c7.46-7.45,14.32-23.77,16.1-28.21,1.12,2.17,2.15,4.32,3.11,6.44-9.93,9.34-16.33,25.72-16.33,25.72,7.46-6.41,14.63-21.17,16.53-25.27.56,1.25,1.1,2.49,1.61,3.72-9.26,9.75-14.85,26.49-14.85,26.49,7.23-7.13,13.62-22.77,15-26.21.7,1.68,1.34,3.34,2,5-9,9.45-14.76,25.52-14.76,25.52l.28-.28v0l0,0c6.9-7,13.11-21.36,14.57-24.89v0c.44,1.19.85,2.37,1.24,3.54-8.85,9.28-14.18,25.8-14.18,25.8,7.08-6.86,12.93-21.73,14.31-25.42.46,1.37.88,2.72,1.28,4.05-8.67,8.88-13.87,25.37-13.87,25.37,7.21-6.92,12.89-22.18,13.94-25.13.4,1.36.78,2.7,1.13,4-8.31,8.56-13.25,24.65-13.25,24.65,6.9-6.55,12.14-20.76,13.35-24.24.51,1.93,1,3.81,1.37,5.66-7.81,8.13-14.16,22.09-14.16,22.09,6.55-6.43,12.76-18.81,14.21-21.82.34,1.55.65,3.07.92,4.55q.23,1.22.42,2.43C67.4,205,62,219.44,62,219.44a37.29,37.29,0,0,0,5.6-7.05,96,96,0,0,0-4.73,10.08,34.49,34.49,0,0,0,4.63-5.53c-2.4,4.58-3.89,8.3-3.89,8.3a31.33,31.33,0,0,0,3.65-4.12c-1.88,3.75-3,6.65-3,6.65a28.26,28.26,0,0,0,3-3.3c-1.56,3.17-2.49,5.54-2.49,5.54a25.84,25.84,0,0,0,2.52-2.68C66,230,65.18,232,65.18,232a23.11,23.11,0,0,0,2.07-2.12c-1.08,2.23-1.72,3.77-1.72,3.77A27.48,27.48,0,0,0,68,231.1c-1.29,2.54-2.08,4.38-2.08,4.38a26.24,26.24,0,0,0,3.38-3.66c-1.74,3.22-2.9,5.88-2.9,5.88a31.31,31.31,0,0,0,5.32-6.62,78.49,78.49,0,0,0-4,8.49c3.64-3.5,6-8.44,7.22-11.55-2.26,9.33-3.32,23.16-3.32,23.16,3.08-8.64,4.08-19.09,4.4-24.23a108.33,108.33,0,0,0,2.39,14.59,38.34,38.34,0,0,0-.92-13.41,84.74,84.74,0,0,0,6,11.8,33.46,33.46,0,0,0-3-9.2,89.15,89.15,0,0,0,6.86,7.13c-2.9-7.06-9.77-13.24-11.09-14.39,0-.41.09-.81.14-1.22,2.36,4.88,11,11.37,11,11.37-3.19-6.53-10.49-11.09-11-11.4.08-.67.15-1.34.21-2C79.38,225.12,88,231.48,88,231.48c-3.36-6.21-10.17-10.68-11.47-11.5.06-.63.11-1.27.16-1.91l.11.09c3.74,5.13,14,11.24,14,11.24-4.5-6.62-12.74-10.89-14.09-11.56,0-.35,0-.7.07-1.06,4.73,4.79,16,9.54,16,9.54-5.18-5.92-13.61-9.16-15.94-10q.06-1.11.09-2.25C82,219.09,94,224,94,224c-5.64-6.18-14.63-9.53-17.06-10.35,0-.72,0-1.46,0-2.21,5.63,5,18.34,9.65,18.34,9.65C89.06,215,79.58,211.79,76.93,211c0-.66,0-1.33-.05-2,5.73,4.9,18.65,9.4,18.65,9.4a36.72,36.72,0,0,0-8.15-5.64c5.31,2.3,10.23,3.84,10.23,3.84-7.65-6.89-19.37-9.7-20.85-10-.05-.77-.11-1.54-.18-2.33,7.43,5.55,23.66,9.85,23.66,9.85-8.18-7-20.26-9.78-23.72-10.48-.08-.81-.17-1.64-.28-2.49,7.35,5.28,23.41,9.22,23.41,9.22-8.28-6.66-20.27-9.19-23.48-9.76-.11-.91-.25-1.84-.4-2.79,7.78,5.48,25,9.5,25,9.5-9.11-7-22-9.43-25-9.92q-.24-1.52-.54-3.09c8.62,6,28.06,10.35,28.06,10.35C92.59,196.89,77.81,194.39,75.11,194Zm-40.21-78q-1.65-1.83-3.23-3.51a70.31,70.31,0,0,0,14-4.05A122.66,122.66,0,0,0,34.9,115.94Zm42,90.82-.11,0,.13.05a32.24,32.24,0,0,0,6.31,4,57.54,57.54,0,0,0-6.35-2.23c0-.63,0-1.26-.09-1.9ZM76.71,218l.07.09-.07,0Zm-1,6.93-.15.48a22.12,22.12,0,0,0-2.78,3.71,51.83,51.83,0,0,0,3.09-6.68C75.85,223.3,75.8,224.13,75.74,224.94Zm.17-2.71a20.39,20.39,0,0,0-2.13,2.38c1-2,1.77-3.66,2.24-4.78C76,220.64,76,221.45,75.91,222.23Zm.14-3.3c-.56.55-1.11,1.17-1.66,1.83.79-1.63,1.36-3,1.71-3.86C76.09,217.59,76.07,218.26,76.05,218.93Zm.06-2.66c-.51.5-1,1-1.51,1.63.71-1.55,1.23-2.81,1.52-3.55C76.12,215,76.12,215.64,76.11,216.27Zm0-2.38a23.41,23.41,0,0,0-2.08,2.3c1-2.23,1.75-4,2-4.77C76.1,212.26,76.11,213.08,76.12,213.89Zm-.05-2.72a28.21,28.21,0,0,0-2.43,2.71c1.12-2.3,1.92-4.22,2.33-5.27C76,209.47,76.05,210.32,76.07,211.17Zm-.27-5.44c.06.8.1,1.59.15,2.38a29.5,29.5,0,0,0-2.69,3.1C74.37,209,75.24,207.05,75.8,205.73Zm-.2-2.3h0l0,0c0,.43.09.87.12,1.3a39.66,39.66,0,0,0-3.88,4.9c1.7-3.27,3-6.17,3.61-7.77Zm-.23-2.23a43,43,0,0,0-5.15,6.72,98.78,98.78,0,0,0,4.7-10.06C75.09,199,75.24,200.09,75.37,201.2ZM65.23,161.8c12.8,5.63,39.26,6,39.26,6C86.59,160.1,65.23,161.8,65.23,161.8Z"/><path class="cls-75" d="M30.45,53.39,28.88,57l1.19.67c-10.44,23.9-9.19,55.89-9.19,55.89C28,99.27,30.48,68.28,31.11,58.23q4.72,2.66,9.22,5.36c-11,23.87-10.52,55.8-10.52,55.8,3.27-6.23,5.7-15.53,7.48-24.88.23,6.6.87,11.26.87,11.26,4.68-9.18,4.34-32.7,4.06-41q4.06,2.49,7.94,5C39.43,92.73,40,123.91,40,123.91c7.43-14.1,10.28-44.24,11-53.58,2.35,1.54,4.64,3.1,6.89,4.66-10.13,24.74-9.31,56.68-9.31,56.68,7.1-15,9.71-45.1,10.44-55.88q2.61,1.83,5.12,3.68l0,.09.09-.06c1.29,1,2.57,1.9,3.82,2.86C57,97.5,55.81,130,55.81,130c7.59-9.39,11.88-41.3,12.64-47.38Q70.21,84,71.9,85.34c-10.68,22.74-10.76,53.72-10.76,53.72C68.66,124.93,71.9,95.5,72.78,86q2,1.59,4,3.2c-10.8,22.36-11.06,53.51-11.06,53.51,7.7-14.4,10.94-44.57,11.71-53q3.75,3.1,7.26,6.25c-11.33,22.64-12.17,54.86-12.17,54.86C80.74,135.51,84.33,103,85,96.34q3.68,3.3,7.11,6.61C80.86,125,79.9,157,79.9,157c8.39-15.53,11.89-48.46,12.42-53.86q3.51,3.41,6.78,6.82C88,131.45,86.88,163.21,86.88,163.21c8.59-15.82,12-49.63,12.31-53.16q3,3.11,5.74,6.22c-9,12.11-11.41,37.88-11.41,37.88a15.38,15.38,0,0,0,1.78-2.41,166.21,166.21,0,0,0-1.88,17.73c7.57-13.87,11-41.56,11.94-49.88.18-.88.33-1.66.46-2.34q3,3.42,5.82,6.83C100.8,145.32,99,176.5,99,176.5c8.3-15.17,12.22-45.79,13-52.07,1.59,1.95,3.14,3.89,4.63,5.84-10.68,21.32-13,52.21-13,52.21,8.16-14.86,12.41-43.76,13.45-51.6q3.51,4.6,6.66,9.19c-11,18.83-14.64,47.67-14.64,47.67,8.51-13.19,13.75-39.7,15.08-47,1.23,1.8,2.42,3.6,3.57,5.38-9.94,19.25-12.24,48.35-12.24,48.35,7.93-14.25,11.74-41.89,12.5-47.94,1.56,2.44,3.06,4.86,4.48,7.27C122.82,172.39,120,200.5,120,200.5c7.73-13.86,11.82-40,12.71-46.27,1,1.75,2,3.5,3,5.23-9.52,18.34-11.53,47-11.53,47C132,192.68,135.28,166.5,136,160q1.68,3,3.21,6C129.82,183.67,128,212.23,128,212.23c8-13.91,10.9-40.65,11.41-45.81q1.56,3,3,6c-9,17-10.59,44.76-10.59,44.76,7.67-13.2,10.33-38.09,10.88-44.16q2.07,4.38,3.88,8.59c-8.42,16.09-12.76,41-12.76,41,7.21-12.86,11.88-35.17,12.94-40.57,1,2.36,2,4.69,2.86,7,.49,1.25,1,2.5,1.43,3.76-8.1,15.08-10.92,40.38-10.92,40.38a66.38,66.38,0,0,0,5.63-13.51,175.14,175.14,0,0,0-3.35,18A60.1,60.1,0,0,0,147.13,227c-1.89,8.28-2.74,14.86-2.74,14.86a53.92,53.92,0,0,0,3.82-8c-1.42,6.76-2.07,11.86-2.07,11.86a47.36,47.36,0,0,0,3.19-6.46c-1.15,5.7-1.68,9.88-1.68,9.88a44.42,44.42,0,0,0,2.71-5.29c-1,4.84-1.43,8.27-1.43,8.27a41.89,41.89,0,0,0,2.24-4.21c-.79,4-1.19,6.72-1.19,6.72a42.41,42.41,0,0,0,2.62-5c-1,4.58-1.48,7.86-1.48,7.86a46.93,46.93,0,0,0,3.59-7.2c-1.39,5.86-2.15,10.59-2.15,10.59a54.47,54.47,0,0,0,5.36-12.71,148.8,148.8,0,0,0-2.82,15.2c4-7,5.71-15.88,6.41-21.36,0,15.89,2.45,23.61,2.45,23.61,1.46-15.09,0-17.34-1.26-25.74a190.83,190.83,0,0,0,8.4,22.56C170,254,168,246.89,165.21,241.23A136.4,136.4,0,0,0,177.77,258a57,57,0,0,0-7.43-13.66,131.46,131.46,0,0,0,12.25,8.85c-6.56-10.26-18.51-17.59-20.8-18.93l-.21-2c5,7,19.65,14.09,19.65,14.09-6.81-9.3-18.82-13.83-19.66-14.14-.12-1.11-.25-2.21-.39-3.33,5.76,6.82,20.31,13.76,20.31,13.76-6.93-8.71-18.21-13.3-20.35-14.12-.14-1.07-.29-2.15-.45-3.25,7,6.92,24.1,12.95,24.1,12.95-8.72-8.93-22-12.65-24.14-13.21-.08-.58-.17-1.16-.26-1.74,8.41,5.91,26.13,9.25,26.13,9.25-9.45-7.55-22.63-9.53-26.24-10-.2-1.2-.41-2.43-.64-3.65,9,6.08,27.84,9.42,27.84,9.42-10.19-7.8-24.22-9.74-28-10.13-.22-1.17-.46-2.35-.72-3.55,9.76,5.86,29.57,8.5,29.57,8.5-11-7.55-25.67-9-29.74-9.26-.23-1.05-.48-2.12-.75-3.2,9.88,5.69,29.94,8,29.94,8a50.48,50.48,0,0,0-13.61-6,150.2,150.2,0,0,0,16,2.26c-13.32-8.16-31.06-8.19-33.31-8.16-.32-1.21-.67-2.43-1-3.67,12.55,6.09,37.27,6.78,37.27,6.78-14.1-8.06-32.37-8-37.57-7.77-.39-1.29-.8-2.59-1.25-3.92,12.34,5.69,36.7,5.88,36.7,5.88-14.14-7.55-32.19-7-37-6.72-.47-1.42-1-2.86-1.52-4.33,13,5.85,39,5.71,39,5.71-15.43-7.72-34.8-6.72-39.27-6.37q-.87-2.32-1.83-4.77c14.4,6.38,43.73,5.92,43.73,5.92-17.86-8.37-39.9-6.74-43.91-6.36q-1-2.53-2.16-5.21c14.09,5.84,43.57,3.69,43.57,3.69-18.27-7.7-40.84-4.36-43.66-3.9-.74-1.7-1.51-3.45-2.33-5.23,16.21,6.19,50,2.57,50,2.57-21.45-8.19-47.6-3.22-50.07-2.72-1.58-3.43-3.3-7-5.2-10.77,16.81,4.27,49.53-2.52,49.53-2.52-21.1-5.79-45.58.88-49.74,2.11q-1.31-2.59-2.73-5.28c-.34-.66-.7-1.3-1-1.95,17.41,4.26,52.17-4.08,52.17-4.08-22.75-5.65-49.28,2.88-52.27,3.89q-1.41-2.61-2.87-5.14c17.75,4,52.7-5,52.7-5-23.62-5.22-50.45,4-52.77,4.86-1.32-2.28-2.66-4.51-4-6.71,19.56,3.76,55.29-4.79,55.29-4.79-24.28-5.24-50.67,2.68-55.61,4.28q-3.57-5.69-7.36-11c21.92,1.61,59.31-11.83,59.31-11.83-27.64-2.42-54.94,9.31-59.61,11.42q-3-4.12-6-8.06C136.82,128.53,175,116,175,116c-28.31-3.63-56.87,8.3-59.86,9.6-.82-1.06-1.65-2.11-2.49-3.14,21.34-.61,57.47-18.09,57.47-18.09-25.73-.31-52,13.87-58.07,17.34-1.47-1.81-3-3.59-4.45-5.33,20.7-1.63,56-21.45,56-21.45-25.55,1.29-51.32,17.51-56.45,20.91l-.91-1c0-.17,0-.15-.09-.1q-2.1-2.41-4.21-4.72c21.17-2.33,55.5-22.35,55.5-22.35-25.45,1.7-50.29,17.59-56.19,21.6q-3.42-3.69-6.84-7.15L95,102c20.59-2.34,54.7-23.86,54.7-23.86a84.53,84.53,0,0,0-18.07,4C137.39,78,141.19,75,141.19,75c-23.1,4.88-42.37,21.55-47.54,26.34Q91,98.68,88.42,96.2c18.35-3.56,48.3-25.47,48.3-25.47-23.27,4.14-45.06,22.14-48.61,25.18-1.92-1.83-3.84-3.6-5.74-5.31,20.54-5.35,50.87-28.42,50.87-28.42-23.94,4.56-45.66,22-52,27.44q-4.14-3.69-8.15-7c21.63-4.3,55.61-29,55.61-29a88.74,88.74,0,0,0-19.14,5.62c8.52-6.91,14.56-12.6,14.56-12.6C97.72,54.75,75.63,78.45,72.4,82c-1.8-1.48-3.56-2.89-5.3-4.26l.82-.54c19.79-7.17,48.26-32.63,48.26-32.63C106.76,47.28,97.77,52.06,90,57.2c10.78-11.51,19.44-22.69,19.44-22.69a83.77,83.77,0,0,0-8.07,5.15c-19.83,8.07-37,25.93-42.41,32q-3-2.2-5.84-4.16C71.9,56.92,97.05,25.19,97.05,25.19,74.61,36.3,56.9,60.08,52.19,66.8c-3.3-2.27-6.33-4.26-9-6C60.56,48.75,84,15.51,84,15.51,63.33,28.28,46.79,53,42.23,60.24c-4.54-2.84-8-4.8-9.95-5.87C49.36,41.88,71.12,9.1,71.12,9.1c-20.14,12.82-35.5,37-40,44.63Zm130.6,179.29c.22,1.39.43,2.75.62,4.07,0,.27,0,.55,0,.83a39.34,39.34,0,0,0-2.73,7A94.91,94.91,0,0,0,161.05,232.68ZM157.69,210c-.25-1-.51-2-.79-3a43,43,0,0,0,10.64,4.19A73.92,73.92,0,0,0,157.69,210Zm2.63,18.45c.24,1.33.46,2.64.67,3.91a33.81,33.81,0,0,0-2.24,4.66C159.53,233.45,160,230.4,160.32,228.41Zm-.88-4.74c.22,1.11.43,2.2.63,3.29a39.81,39.81,0,0,0-1.76,3.58C158.88,227.61,159.24,225.19,159.44,223.67Zm-.84-4.12c.22,1,.44,2.08.64,3.1-.56,1-1.1,2.08-1.61,3.21C158.12,223.08,158.43,220.86,158.6,219.55Zm-1.06-4.69c.31,1.33.61,2.65.9,3.95a42.84,42.84,0,0,0-2.2,4.5C157,219.32,157.38,216.2,157.54,214.86Zm-1.11-4.49c.35,1.37.69,2.73,1,4.08a45,45,0,0,0-2.55,5.3C155.7,215.61,156.19,212.21,156.43,210.37Zm-1.24-4.57c.36,1.26.7,2.52,1,3.77a53.28,53.28,0,0,0-2.79,6C154.27,211.6,154.84,208.13,155.19,205.8Zm-1.81-6.05c.26.81.5,1.61.75,2.42h-.06l.07,0c.21.69.42,1.37.62,2a69.85,69.85,0,0,0-3.9,9.38C152.18,207.73,153,202.57,153.38,199.75Zm-2.13-6.29q.94,2.59,1.78,5.21A77.13,77.13,0,0,0,148,211.46,182.74,182.74,0,0,0,151.25,193.46Zm-91.11-121C66,69.85,72.59,65.41,78.88,60.58A195,195,0,0,0,66,76.89C64,75.34,62,73.87,60.14,72.47ZM142,168.77c15.66,6.11,47.55,4.17,47.55,4.17C167.63,164.62,142,168.77,142,168.77Zm-16.91-29.65c20.26,4.16,58.3-5.4,58.3-5.4C155.1,128.18,125.08,139.12,125.08,139.12Zm12.45,89.21c8.15-13.94,10.71-40.77,10.71-40.77C139.89,202.48,137.53,228.33,137.53,228.33Z"/><path class="cls-76" d="M82,90.12s31.81-20.66,48.87-26.88C130.91,63.24,105.64,68.9,82,90.12Z"/><path class="cls-77" d="M74.06,81.27S107.93,60.55,125.17,55A134,134,0,0,0,74.06,81.27Z"/><path class="cls-78" d="M66.88,76.62s31.6-23.68,48.17-31.43C115.05,45.19,88.89,53.32,66.88,76.62Z"/><path class="cls-79" d="M59.7,71.2s29.19-24.38,45.76-32.13C105.46,39.07,81.7,47.9,59.7,71.2Z"/><path class="cls-80" d="M52.56,67.27s28-31.17,43.59-41.11A139.59,139.59,0,0,0,52.56,67.27Z"/><path class="cls-81" d="M43.14,60.27c16.13-20,25.62-31.7,40.27-44.09C83.41,16.18,62.09,29.55,43.14,60.27Z"/><path class="cls-82" d="M31.47,54.54C47,34.31,56.11,22.48,70.26,10,70.26,10,49.64,23.4,31.47,54.54Z"/><path class="cls-83" d="M88.93,95.79s30-18.7,46.11-24.29C135,71.5,111.16,76.54,88.93,95.79Z"/><path class="cls-84" d="M94.08,101.28s29.77-19.59,45.74-25.5C139.82,75.78,116.18,81.17,94.08,101.28Z"/><path class="cls-85" d="M95.29,101s31.36-16.16,47.77-20.25C143.06,80.72,119.06,83.44,95.29,101Z"/><path class="cls-86" d="M103,109.23s34-16.66,51.79-20.79C154.77,88.44,128.69,91.05,103,109.23Z"/><path class="cls-87" d="M107.49,116.12s35.63-17.05,53.56-20.53A138.86,138.86,0,0,0,107.49,116.12Z"/><path class="cls-88" d="M112.46,122.1s37.92-14.91,56-17.41C168.44,104.69,139.4,106.33,112.46,122.1Z"/><path class="cls-89" d="M116,125.55s39.68-9.18,57.87-9.41C173.89,116.14,144.34,113.22,116,125.55Z"/><path class="cls-90" d="M121.94,134.13s34.31-9.75,57.92-11.64C179.86,122.49,152.71,120.81,121.94,134.13Z"/><path class="cls-91" d="M125.91,139.25A299.43,299.43,0,0,1,182,133.53S157.61,129.6,125.91,139.25Z"/><path class="cls-92" d="M128.79,145.63A328.44,328.44,0,0,1,183.05,141S160.48,136,128.79,145.63Z"/><path class="cls-93" d="M133.57,152.67a256.54,256.54,0,0,1,51.32-4.94S161.55,143.71,133.57,152.67Z"/><path class="cls-94" d="M136.63,157.77a301.38,301.38,0,0,1,50.39-3.9S164.74,148.83,136.63,157.77Z"/><path class="cls-95" d="M140.25,165.37A432.49,432.49,0,0,1,188.91,163S168.8,157.75,140.25,165.37Z"/><path class="cls-96" d="M142.33,168.81s25.92.94,46.77,4C189.1,172.82,171.5,165.9,142.33,168.81Z"/><path class="cls-97" d="M147,176.38s25.93.21,46.84,2.69C193.88,179.07,176.13,172.66,147,176.38Z"/><path class="cls-98" d="M148.13,182a377.93,377.93,0,0,1,42.62,3.42S173,178.65,148.13,182Z"/><path class="cls-99" d="M150.87,187.34a381.42,381.42,0,0,1,42.39,6S175.89,185.54,150.87,187.34Z"/><path class="cls-100" d="M152.05,192.66a229.61,229.61,0,0,1,38.57,5.87S177.08,190.86,152.05,192.66Z"/><path class="cls-101" d="M154,198a219.93,219.93,0,0,1,36.41,5.86S175.55,196.32,154,198Z"/><path class="cls-102" d="M155.55,202.61s16.72,2.26,36.75,7.21C192.3,209.82,177.16,201.77,155.55,202.61Z"/><path class="cls-103" d="M156.93,207a286.82,286.82,0,0,1,31.59,7.46S177.63,207.81,156.93,207Z"/><path class="cls-104" d="M157.87,210.27s10.67,2.4,27.42,7.41C185.29,217.68,177.12,212.23,157.87,210.27Z"/><path class="cls-105" d="M158.74,214.2s11.83,3.32,28.54,8.53C187.28,222.73,178,216.39,158.74,214.2Z"/><path class="cls-106" d="M159.3,218.41s11.57,3.46,27.09,9.27A79.32,79.32,0,0,0,159.3,218.41Z"/><path class="cls-107" d="M159.94,222.78A189.34,189.34,0,0,1,185.61,232,65.89,65.89,0,0,0,159.94,222.78Z"/><path class="cls-108" d="M160.61,225.27s9.57,4.65,23.09,12.19C183.7,237.46,175.13,229.78,160.61,225.27Z"/><path class="cls-109" d="M161.1,228.56a158.14,158.14,0,0,1,20,13.64S175.46,234.87,161.1,228.56Z"/><path class="cls-110" d="M161.71,232.33a118.13,118.13,0,0,1,19,13.58A52.49,52.49,0,0,0,161.71,232.33Z"/><path class="cls-111" d="M162.05,234.79s9.89,8.92,20,17.68A75.29,75.29,0,0,0,162.05,234.79Z"/><path class="cls-112" d="M162.42,235.71s7,10.24,15,21.41C177.37,257.12,173.21,246.66,162.42,235.71Z"/><path class="cls-113" d="M161.91,235.63s4.2,12.2,8.84,25.54C170.75,261.17,169.3,249.71,161.91,235.63Z"/><path class="cls-114" d="M162.37,238.7s.21,1,1.64,23.09C164,261.79,165.51,259.93,162.37,238.7Z"/><path class="cls-115" d="M68.12,82.57s-10.42,38.14-11.88,46.6C56.24,129.17,57.15,100.35,68.12,82.57Z"/><path class="cls-116" d="M72.58,86.16S63.17,127.47,62.05,136C62.05,136,62.3,104.45,72.58,86.16Z"/><path class="cls-117" d="M77.35,89.28s-5.71,18.17-10.89,51C66.46,140.29,67.31,111,77.35,89.28Z"/><path class="cls-118" d="M84.73,96.42S79.09,117.08,73,148.8C73,148.8,74.69,118.16,84.73,96.42Z"/><path class="cls-119" d="M91.83,104s-5.51,19.66-11.58,51.38C80.25,155.35,81.79,125.71,91.83,104Z"/><path class="cls-120" d="M98.85,111.72s-5.52,19.66-11.59,51.38C87.26,163.1,88.81,133.46,98.85,111.72Z"/><path class="cls-121" d="M105.48,116.63S100,136.29,93.9,168C93.9,168,95.45,138.36,105.48,116.63Z"/><path class="cls-122" d="M111.52,125s-5.7,17.67-11.77,49.38C99.75,174.42,101.48,146.77,111.52,125Z"/><path class="cls-123" d="M116.72,131.36s-6.43,17.64-12.5,49.36C104.22,180.72,106.68,153.09,116.72,131.36Z"/><path class="cls-124" d="M123.77,140.69s-9,14.66-14.3,45.86C109.47,186.55,116.05,162.74,123.77,140.69Z"/><path class="cls-125" d="M127.78,146.5s-7.92,14.25-12,46.38C115.81,192.88,121.81,167.2,127.78,146.5Z"/><path class="cls-126" d="M132.76,154s-8.44,13.83-12.48,45.95C120.28,200,126.79,174.73,132.76,154Z"/><path class="cls-127" d="M135.88,159.86s-7.45,13.57-11.49,45.69C124.39,205.55,129.91,180.57,135.88,159.86Z"/><path class="cls-128" d="M139.29,166.41s-7,12.68-11.06,44.8C128.23,211.21,133.32,187.11,139.29,166.41Z"/><path class="cls-129" d="M142.6,172.53s-7.13,11.85-10.56,44.05C132,216.58,137.15,193.37,142.6,172.53Z"/><path class="cls-130" d="M146.62,181.87s-6.81,12.77-12.49,40C134.13,221.85,140.8,199.75,146.62,181.87Z"/><path class="cls-131" d="M148.09,188s-6.58,11.25-10.23,39.29C137.86,227.25,142.66,206.82,148.09,188Z"/><path class="cls-132" d="M151.16,193.09s-7.09,11.1-10.73,39.13C140.43,232.22,145.72,212,151.16,193.09Z"/><path class="cls-133" d="M153.53,199.07s-7,9.5-10.65,37.53C142.88,236.6,148.09,217.93,153.53,199.07Z"/><path class="cls-134" d="M154.74,205.06s-6.14,10.8-9.76,35.49C145,240.55,149.31,223.92,154.74,205.06Z"/><path class="cls-135" d="M156.27,210.24s-5.8,8.3-9.42,33C146.85,243.23,150.84,229.11,156.27,210.24Z"/><path class="cls-136" d="M157.25,215.41s-5.5,8-9.11,32.72C148.14,248.13,151.82,234.27,157.25,215.41Z"/><path class="cls-137" d="M158.35,219.79s-5.35,6.57-9,31.26C149.39,251.05,152.91,238.65,158.35,219.79Z"/><path class="cls-138" d="M159.09,224s-5,4.56-8.57,29.26C150.52,253.29,153.65,242.89,159.09,224Z"/><path class="cls-139" d="M160.08,228.06s-5.65,8.94-8.55,28.15C151.53,256.21,154.64,246.93,160.08,228.06Z"/><path class="cls-140" d="M160.91,233.15s-4.85,6.89-7.76,26.09C153.15,259.24,155.47,252,160.91,233.15Z"/><path class="cls-141" d="M161.85,237.69s-3.44,5.24-6.34,24.45C155.51,262.14,156.41,256.55,161.85,237.69Z"/><path class="cls-142" d="M58.2,76.34S50,120.53,49.37,129.12C49.37,129.12,49.13,95.42,58.2,76.34Z"/><path class="cls-143" d="M50.15,70.5s-9.27,43.79-9.85,52.38C40.3,122.88,41.08,89.58,50.15,70.5Z"/><path class="cls-144" d="M41,63.41s-10,44.67-10.61,53.26C30.39,116.67,31.92,82.5,41,63.41Z"/><path class="cls-145" d="M30.48,58.2s-8.84,45.43-9.31,54C21.17,112.22,21.64,77.42,30.48,58.2Z"/><path class="cls-146" d="M30.2,55.22s101.87,48.63,129.46,164.85c0,0-16.77-104.67-130-166.38Z"/></g></g></g></svg>